<svg width="49" height="48" viewBox="0 0 49 48" fill="none" xmlns="http://www.w3.org/2000/svg">
<path d="M38.0225 13.6234C37.2248 16.6003 35.4672 19.2308 33.0222 21.1069C30.5772 22.983 27.5814 23.9999 24.4995 23.9999C21.4176 23.9999 18.4219 22.983 15.9769 21.1069C13.5318 19.2308 11.7742 16.6003 10.9766 13.6234L14.8403 12.5881C15.41 14.7145 16.6655 16.5934 18.4119 17.9335C20.1584 19.2736 22.2982 19.9999 24.4995 19.9999C26.7009 19.9999 28.8407 19.2736 30.5871 17.9335C32.3336 16.5934 33.589 14.7145 34.1588 12.5881L38.0225 13.6234Z" fill="#C9C7C5"/>
<path d="M38.0225 25.6234C37.2248 28.6003 35.4672 31.2308 33.0222 33.1069C30.5772 34.983 27.5814 35.9999 24.4995 35.9999C21.4176 35.9999 18.4219 34.983 15.9769 33.1069C13.5318 31.2308 11.7742 28.6003 10.9766 25.6234L14.8403 24.5881C15.41 26.7145 16.6655 28.5934 18.4119 29.9335C20.1584 31.2736 22.2982 31.9999 24.4995 31.9999C26.7009 31.9999 28.8407 31.2736 30.5871 29.9335C32.3336 28.5934 33.589 26.7145 34.1588 24.5881L38.0225 25.6234Z" fill="#C9C7C5"/>
</svg>
