<svg width="24" height="25" viewBox="0 0 24 25" fill="none" xmlns="http://www.w3.org/2000/svg">
<path d="M12.7218 7.04399C14.4989 7.04399 15.6977 7.81165 16.3812 8.45313L19.0521 5.84517C17.4117 4.32035 15.277 3.38443 12.7218 3.38443C9.02032 3.38443 5.82361 5.50866 4.26732 8.60035L7.32733 10.977C8.09496 8.69499 10.2191 7.04399 12.7218 7.04399Z" fill="#4F3422"/>
<path d="M21.8071 13.0591C21.8071 12.2809 21.744 11.7131 21.6073 11.1242H12.7218V14.6365H17.9374C17.8323 15.5093 17.2644 16.8238 16.0026 17.7072L18.989 20.0207C20.7766 18.3697 21.8071 15.9405 21.8071 13.0591Z" fill="#4F3422"/>
<path d="M7.33782 14.7206C7.13803 14.1317 7.02235 13.5008 7.02235 12.8488C7.02235 12.1968 7.13805 11.5659 7.32733 10.977L4.26732 8.60035C3.62588 9.8833 3.25781 11.324 3.25781 12.8488C3.25781 14.3736 3.62585 15.8143 4.2673 17.0972L7.33782 14.7206Z" fill="#4F3422"/>
<path d="M12.7217 22.3131C15.277 22.3131 17.4222 21.4719 18.989 20.0207L16.0026 17.7072C15.2034 18.2645 14.1308 18.6536 12.7217 18.6536C10.219 18.6536 8.09493 17.0026 7.33782 14.7206L4.27779 17.0972C5.83408 20.1889 9.02028 22.3131 12.7217 22.3131Z" fill="#4F3422"/>
<path d="M12.464 6.72368C14.2411 6.72368 15.4398 7.49134 16.1233 8.13282L18.7943 5.52485C17.1539 4.00004 15.0192 3.06412 12.464 3.06412C8.76251 3.06412 5.5658 5.18834 4.00951 8.28004L7.06951 10.6566C7.83714 8.37468 9.96127 6.72368 12.464 6.72368Z" fill="#4F3422"/>
<path d="M21.5493 12.7388C21.5493 11.9606 21.4862 11.3928 21.3495 10.8039H12.4639V14.3162H17.6796C17.5745 15.189 17.0066 16.5035 15.7448 17.3869L18.7312 19.7004C20.5188 18.0494 21.5493 15.6202 21.5493 12.7388Z" fill="#4F3422"/>
<path d="M7.08001 14.4003C6.88021 13.8114 6.76454 13.1805 6.76454 12.5285C6.76454 11.8765 6.88024 11.2455 7.06951 10.6566L4.00951 8.28004C3.36806 9.56299 3 11.0037 3 12.5285C3 14.0533 3.36804 15.494 4.00949 16.7769L7.08001 14.4003Z" fill="#4F3422"/>
<path d="M12.4639 21.9928C15.0192 21.9928 17.1644 21.1516 18.7312 19.7004L15.7448 17.3869C14.9456 17.9442 13.873 18.3333 12.4639 18.3333C9.96123 18.3333 7.83712 16.6823 7.08001 14.4003L4.01998 16.7769C5.57627 19.8686 8.76246 21.9928 12.4639 21.9928Z" fill="#4F3422"/>
</svg>
