<svg width="207" height="171" viewBox="0 0 207 171" fill="none" xmlns="http://www.w3.org/2000/svg">
<path d="M20.3801 51.3565C19.4267 50.7757 18.4952 50.1511 17.6185 49.4497C16.9829 48.9456 15.6022 48.0799 15.2844 47.3238C14.6268 45.7677 17.1473 46.5238 18.0459 46.6663C19.1308 46.8416 20.2157 47.0389 21.3006 47.2471C21.6403 47.3128 21.8704 46.995 21.7279 46.6992C20.4239 43.8828 19.5691 40.9459 19.1089 37.8776C18.9226 38.02 18.7363 38.1625 18.5609 38.3049C20.7636 39.9268 22.9443 41.5815 25.0922 43.2691C25.3771 43.4883 25.8264 43.302 25.7168 42.9075C25.136 40.672 25.0922 38.4803 25.6073 36.2338C25.399 36.2886 25.1908 36.3434 24.9826 36.3982C26.6264 38.1515 28.2702 39.8939 29.9139 41.6473C30.2427 41.998 30.7797 41.4719 30.4509 41.1103C28.8071 39.357 27.1634 37.6146 25.5196 35.8612C25.3333 35.6639 24.9497 35.7516 24.8949 36.0256C24.347 38.4036 24.3799 40.7487 25.0045 43.1048C25.2127 42.9842 25.421 42.8637 25.6292 42.7431C23.4265 41.0117 21.2019 39.3241 18.9445 37.6584C18.6486 37.4392 18.3527 37.8009 18.3966 38.0858C18.8568 41.2199 19.7554 44.2116 21.0814 47.0827C21.2239 46.8964 21.3663 46.7101 21.5088 46.5348C19.7006 46.1841 17.8925 45.8553 16.0734 45.6252C15.3172 45.5266 14.2981 45.3403 14.046 46.2718C13.7721 47.3019 15.1748 48.2991 15.7884 48.8689C17.0815 50.0634 18.5061 51.0935 20.0075 52.014C20.4129 52.2551 20.7965 51.6086 20.3801 51.3565Z" fill="#FFBD1A"/>
<path d="M152.77 36.4639C153.548 33.8887 154.808 31.5765 156.54 29.5272C156.32 29.4395 156.112 29.3519 155.893 29.2642C156.09 31.7189 156.288 34.1736 156.485 36.6283C156.507 36.968 156.868 37.1105 157.131 36.8913C160.189 34.3818 163.487 32.2011 166.994 30.3601C166.808 30.2176 166.621 30.0751 166.446 29.9327C166.074 32.6723 165.35 35.3023 164.243 37.8447C164.101 38.1625 164.408 38.5789 164.758 38.3598C167.038 36.9242 169.482 35.9599 172.112 35.4338C171.958 35.2804 171.805 35.127 171.651 34.9736C170.764 37.4612 169.58 39.7734 168.112 41.9651C167.838 42.3706 168.495 42.7432 168.758 42.3487C170.271 40.1022 171.465 37.7242 172.375 35.1708C172.484 34.875 172.166 34.6558 171.914 34.7106C169.208 35.2475 166.709 36.2448 164.375 37.7132C164.55 37.8885 164.715 38.0529 164.89 38.2283C166.019 35.6311 166.786 32.9463 167.169 30.1409C167.213 29.8231 166.928 29.5491 166.621 29.7135C163.06 31.5874 159.718 33.801 156.616 36.3544C156.836 36.442 157.044 36.5297 157.263 36.6174C157.066 34.1627 156.868 31.708 156.671 29.2533C156.649 28.9574 156.255 28.7163 156.025 28.9902C154.205 31.1381 152.88 33.5599 152.058 36.2557C151.904 36.7269 152.627 36.9242 152.77 36.4639Z" fill="#FFBD1A"/>
<path d="M88.1586 8.37722C87.8189 6.08689 87.797 3.82944 88.06 1.52816C87.8408 1.61583 87.6326 1.7035 87.4134 1.79116C89.1558 3.69794 90.8873 5.61568 92.6297 7.52246C92.8379 7.75258 93.1557 7.59916 93.2543 7.35808C94.3063 4.83762 95.7967 2.61305 97.7144 0.673399C97.5062 0.618606 97.298 0.563814 97.0898 0.509021C97.4076 2.50347 97.7254 4.50887 98.0432 6.50332C98.098 6.86495 98.5582 6.82111 98.7335 6.59098C100.29 4.476 102.185 2.72264 104.421 1.33091C104.235 1.22132 104.048 1.11174 103.851 1.00215C103.72 3.15002 103.391 5.24309 102.876 7.3252C102.755 7.79642 103.479 7.99367 103.599 7.52246C104.136 5.37459 104.465 3.20481 104.607 0.991195C104.629 0.706274 104.279 0.51998 104.037 0.66244C101.692 2.11992 99.7198 3.9719 98.087 6.18552C98.3171 6.2184 98.5472 6.24031 98.7774 6.27319C98.4596 4.27874 98.1418 2.27334 97.824 0.278893C97.7802 -0.0060276 97.3747 -0.0717786 97.1994 0.114516C95.183 2.1528 93.6488 4.48695 92.542 7.12795C92.7502 7.07316 92.9584 7.01837 93.1666 6.96357C91.4242 5.0568 89.6928 3.13906 87.9504 1.23228C87.7093 0.969278 87.3367 1.19941 87.3038 1.49529C87.0408 3.86232 87.0847 6.18552 87.4353 8.5416C87.5011 9.04569 88.2244 8.84843 88.1586 8.37722Z" fill="#FFBD1A"/>
<path d="M83.6219 161.522C84.3342 164.306 85.0465 167.1 85.7588 169.884C85.8355 170.179 86.3067 170.267 86.4492 169.971C87.5779 167.659 88.7176 165.347 89.8463 163.035C89.6491 163.056 89.4518 163.089 89.2546 163.111C91.3695 165.215 93.8133 166.826 96.5748 167.955C96.8378 168.064 97.1228 167.747 97.0351 167.495C96.2351 165.237 95.9173 162.936 96.0707 160.547C95.9173 160.667 95.7529 160.788 95.5995 160.909C97.6488 161.435 99.687 161.961 101.736 162.498C102.065 162.585 102.317 162.235 102.164 161.95C100.805 159.374 99.435 156.799 98.0761 154.224C97.846 153.797 97.1995 154.18 97.4296 154.607C98.7884 157.183 100.158 159.758 101.517 162.333C101.66 162.147 101.802 161.961 101.944 161.785C99.8953 161.259 97.857 160.733 95.8077 160.196C95.5557 160.131 95.3475 160.317 95.3365 160.558C95.1831 163.024 95.5119 165.38 96.3228 167.714C96.4762 167.56 96.6296 167.407 96.783 167.254C94.142 166.169 91.8188 164.613 89.7915 162.607C89.6271 162.443 89.3094 162.465 89.1998 162.684C88.071 164.996 86.9314 167.308 85.8026 169.621C86.0328 169.653 86.2629 169.675 86.493 169.708C85.7807 166.925 85.0684 164.13 84.3561 161.347C84.2246 160.854 83.5013 161.051 83.6219 161.522Z" fill="#FFBD1A"/>
<path d="M198.992 116.187C201.677 116.702 204.121 117.798 206.268 119.496C206.323 119.288 206.378 119.08 206.433 118.872C203.419 120.088 200.417 121.305 197.403 122.521C197.151 122.62 197.019 122.937 197.239 123.146C199.715 125.556 201.644 128.351 203.014 131.518C203.156 131.332 203.299 131.145 203.441 130.97C201.052 130.181 198.641 129.534 196.176 129.03C195.847 128.965 195.595 129.282 195.748 129.578C197.129 132.318 198.51 135.057 199.891 137.797C200 137.611 200.11 137.424 200.219 137.227C197.885 137.041 195.639 136.581 193.425 135.846C192.965 135.693 192.768 136.416 193.228 136.57C195.507 137.326 197.83 137.786 200.23 137.972C200.537 137.994 200.669 137.644 200.559 137.403C199.178 134.663 197.797 131.923 196.417 129.184C196.274 129.37 196.132 129.556 195.989 129.732C198.455 130.236 200.866 130.882 203.255 131.671C203.605 131.781 203.803 131.397 203.682 131.123C202.29 127.902 200.307 125.041 197.787 122.598C197.732 122.806 197.677 123.014 197.622 123.222C200.636 122.006 203.638 120.789 206.652 119.573C206.882 119.485 207.068 119.146 206.816 118.948C204.57 117.162 202.038 115.99 199.211 115.453C198.718 115.376 198.521 116.099 198.992 116.187Z" fill="#FFBD1A"/>
<path d="M185.185 133.852C181.711 137.907 170.775 134.258 160.758 125.688C150.742 117.118 145.428 106.883 148.901 102.829C152.375 98.7739 163.312 102.423 173.328 110.993C183.344 119.562 188.659 129.797 185.185 133.852Z" fill="#4F3422"/>
<path d="M114.075 137.468C110.601 141.523 99.6644 137.874 89.6484 129.304C79.6323 120.735 74.3175 110.499 77.7913 106.445C81.2651 102.39 92.2017 106.039 102.218 114.609C112.234 123.167 117.549 133.403 114.075 137.468Z" fill="#4F3422"/>
<path d="M146.172 61.997C150.709 56.3205 159.947 49.8221 166.906 47.751C173.875 45.6798 181.985 46.7209 187.464 51.4878C193.622 56.8575 195.442 65.6462 195.694 73.8103C196.263 91.4315 191.135 114.214 186.247 131.156C183.946 124.022 176.615 113.458 170.423 109.228C164.232 104.987 155.903 103.574 149.043 106.62C144.167 108.79 140.397 112.987 137.975 117.743C135.553 122.488 136.101 96.4176 135.367 101.689C132.945 101.053 130.304 108.275 127.882 107.639C127.882 107.639 117.658 128.548 114.754 135.879C111.445 128.208 102.798 119.978 94.996 116.954C87.2045 113.929 78.7775 113.031 70.46 112.154C74.5256 104.856 78.6131 97.5463 81.9116 89.8754C83.7088 85.7112 85.2758 81.4374 87.4128 77.4375C95.2481 62.7641 111.532 52.5179 128.145 53.4713C135.981 53.9206 144.222 57.241 148.035 64.101L146.172 61.997Z" fill="#FFBD1A"/>
<path d="M108.947 130.904C105.221 143.945 93.9446 154.531 80.6958 157.413C73.7262 158.936 66.2745 157.917 61.6719 151.977C51.0531 138.301 57.8583 116.461 62.0554 101.711C67.184 83.6839 74.1536 61.6135 85.0573 46.3702C85.0573 46.3702 82.3396 42.8197 79.6 36.1788C78.3178 33.0556 78.1535 29.5051 79.3589 26.36C80.5643 23.2149 84.3779 20.9355 87.4353 22.3382C86.3175 20.7054 87.6873 18.3274 89.5393 17.6699C91.4023 17.0124 93.4515 17.5384 95.3473 18.0754C94.109 16.9905 94.7337 14.7659 96.1473 13.9221C97.5609 13.0783 99.3472 13.2536 100.947 13.6262C105.331 14.6563 109.374 17.0453 112.464 20.3109C114.207 22.1519 112.454 25.1436 110.01 24.4861C106.788 23.6204 103.873 22.5574 101.55 21.4396C102.558 22.1081 105.55 24.256 108.235 26.5025C110.371 28.2777 108.487 31.6858 105.835 30.8311C103.742 30.1626 101.835 29.3517 101.013 28.8037C104.947 32.8913 108.947 37.0993 111.248 42.2827C115.785 52.4741 113.001 64.2654 110.262 75.0705C106.437 90.1932 103.205 108.702 99.8293 123.934C99.8403 123.934 105.988 126.915 108.947 130.904Z" fill="#F6A460"/>
<path d="M108.453 52.9456C110.141 47.1047 111.741 40.5515 108.552 35.2914C106.218 31.445 101.593 29.0999 96.8922 28.6287C92.191 28.1574 87.435 29.3519 83.1831 31.2806C79.8079 32.8148 76.6519 34.8093 74.0109 37.3078C66.6906 44.2226 63.951 54.2167 58.4717 62.4904C55.9184 66.3478 51.5679 70.2381 46.8886 69.0545C44.8174 68.5285 43.1737 67.082 41.2669 66.1505C37.0917 64.1013 31.8535 64.6821 27.6564 66.7094C23.4593 68.7367 20.1389 72.0243 17.1144 75.4324C11.4927 81.7773 6.4956 89.0538 5.45454 97.2398C4.41348 105.426 8.28183 114.609 16.3254 117.973C18.9773 119.091 21.9032 119.518 24.7744 119.935C30.955 120.844 37.9136 122.269 41.1463 127.299C42.6586 129.644 43.1627 132.57 45.2119 134.532C46.4831 135.737 48.2146 136.438 49.9789 136.833C56.1485 138.192 62.636 136.055 68.0494 132.975C71.5233 131.003 74.8218 128.548 76.8162 125.228C79.4901 120.79 79.5011 115.442 80.2353 110.39C80.7832 106.686 81.7476 103.026 83.1283 99.5082C83.753 97.9192 84.4872 96.3193 85.7584 95.1357C87.0295 93.9413 88.9692 93.229 90.6787 93.7659C91.6979 94.0837 92.5307 94.796 93.5279 95.1905C95.7416 96.0672 98.3606 95.1796 100.202 93.744C105.451 89.6565 105.834 82.3581 105.56 75.9693C105.286 69.5805 105.034 62.4466 109.582 57.6906L108.453 52.9456Z" fill="#4F3422"/>
<path d="M86.2509 31.8943C75.5773 29.0889 65.4736 37.5379 60.4437 46.1842C57.8465 50.6662 55.852 55.7619 51.9289 59.3125C47.3483 63.4548 40.9375 64.0027 35.0967 62.9397C32.1927 62.4137 29.4969 61.285 26.6477 60.5836C24.0286 59.9371 21.5848 60.2878 19.1521 61.4165C14.1988 63.7178 9.42092 66.9724 6.53884 71.6956C3.55813 76.583 0.895213 82.6102 0.182911 88.3086C-0.474598 93.5906 0.654126 99.0808 3.34992 103.672C6.18816 108.494 10.7469 112.242 15.9851 114.16C22.5273 116.56 29.5955 115.672 36.335 114.773C36.8062 114.708 36.8172 113.962 36.335 114.017C30.4174 114.806 24.2587 115.628 18.385 114.116C13.2783 112.801 8.64287 109.7 5.4649 105.492C2.10065 101.031 0.445914 95.3659 0.785627 89.799C1.14726 83.9691 3.7773 78.0515 6.6265 73.0215C9.4538 68.0025 14.1112 64.6273 19.2616 62.1836C22.5602 60.6165 25.4422 60.8905 28.8175 62.0192C31.3269 62.8521 33.8584 63.5534 36.4884 63.9041C40.9814 64.4958 45.7593 64.1342 49.7482 61.822C53.6494 59.5536 56.1041 55.6962 58.2081 51.8388C61.0025 46.7102 63.6655 41.7789 68.1913 37.9215C73.0569 33.7682 79.6101 30.919 86.0427 32.6066C86.5139 32.7491 86.7221 32.0258 86.2509 31.8943Z" fill="#4F3422"/>
<path d="M20.9063 115.211C24.8952 116.088 28.4567 118.269 31.0868 121.392C34.0784 124.954 34.7688 128.899 35.6455 133.315C36.3578 136.931 37.9906 139.912 41.2672 141.764C44.3356 143.506 48.0615 144.251 51.5463 144.493C58.0446 144.931 64.8389 143.068 69.8689 138.838C76.2357 133.468 77.5836 125.403 77.6823 117.48C77.748 112.198 77.485 106.938 78.0001 101.667C78.5151 96.3848 80.4876 90.259 86.2628 88.7686C86.734 88.6481 86.5367 87.9248 86.0655 88.0454C77.6384 90.2151 77.0467 100.604 76.9152 107.705C76.7398 116.461 78.1754 126.488 73.0468 134.192C68.9264 140.383 61.4856 143.583 54.2092 143.802C50.4285 143.912 46.4067 143.32 42.9438 141.786C41.1138 140.975 39.4042 139.813 38.2536 138.159C36.8728 136.186 36.4783 133.775 36.0729 131.452C35.3606 127.332 34.1223 123.693 31.3059 120.515C28.6211 117.491 25.0486 115.376 21.1036 114.499C20.6324 114.379 20.4351 115.113 20.9063 115.211Z" fill="#4F3422"/>
<path d="M78.1208 93.1521C81.5727 91.87 83.9069 95.3877 85.3753 97.9301C86.5479 99.9464 87.7862 101.941 89.9889 102.927C94.2846 104.856 98.3502 102.368 100.597 98.6862C105.539 90.5879 105.67 79.0047 99.8077 71.3776C99.5118 70.9941 98.8652 71.3776 99.1611 71.7612C104.936 79.2677 104.827 90.8728 99.6871 98.73C98.1968 101.009 95.9503 102.872 93.1011 102.861C90.0656 102.85 88.0492 100.933 86.5698 98.478C84.7726 95.4973 82.1974 90.8509 77.9345 92.4398C77.4743 92.5933 77.6715 93.3165 78.1208 93.1521Z" fill="#4F3422"/>
<path d="M84.4761 33.1873C77.8243 27.2807 68.2576 28.8039 61.1565 32.99C56.9922 35.4448 53.2444 38.6775 49.8144 42.0637C46.1214 45.7238 42.5599 51.6633 36.9492 52.3208C33.9794 52.6715 30.4508 50.8633 30.6152 47.4772C30.6919 46.0526 31.5905 44.4965 33.0699 44.1787C34.7575 43.817 36.6204 45.0334 36.73 46.7758C36.7629 47.258 37.5081 47.258 37.4861 46.7758C37.256 43.1267 32.248 42.2281 30.4946 45.3183C28.2481 49.2634 32.0836 53.055 35.9739 53.1537C41.9572 53.3071 45.8146 47.2251 49.5076 43.4664C53.8581 39.0172 58.8004 34.7105 64.5098 32.1024C70.7342 29.2642 78.5695 28.9464 83.9611 33.7352C84.3118 34.0421 84.8487 33.5161 84.4761 33.1873Z" fill="#4F3422"/>
<path d="M99.5886 30.3708C103.095 29.8776 106.416 31.9597 109.835 32.4419C112.432 32.8036 115.084 32.683 117.648 32.1241C122.897 30.9954 127.599 28.0147 131.127 23.9929C134.009 20.7054 137.965 15.6754 135.511 11.2263C133.472 7.54423 128.541 3.21562 124.004 3.70876C122.119 3.90601 120.585 5.4402 121.045 7.43464C121.517 9.47292 123.763 10.1304 125.484 9.22088C125.911 8.99075 125.527 8.3442 125.1 8.57433C122.218 10.0866 120.3 5.74704 123.27 4.62927C124.453 4.17997 125.834 4.51969 126.985 4.93611C129.538 5.86758 131.839 7.59902 133.549 9.69209C134.601 10.9852 135.719 12.6399 135.664 14.3823C135.62 15.8398 134.798 17.2425 134.108 18.4808C132.87 20.7163 131.335 22.7875 129.549 24.6066C125.681 28.5517 120.563 31.2474 115.029 31.7954C112.202 32.0803 109.396 31.7954 106.69 30.9625C104.246 30.2173 101.999 29.2968 99.4023 29.6585C98.9092 29.7133 99.1174 30.4365 99.5886 30.3708Z" fill="#4F3422"/>
<path d="M95.0503 60.5836C95.8941 62.2932 97.0009 63.926 98.4584 65.4054L103.313 59.0714L110.096 73.0325C112.496 77.9748 118.874 79.4542 123.159 76.0132C123.225 75.9584 123.301 75.9036 123.367 75.8379C127.433 72.5394 127.564 66.3697 123.696 62.8411L94.9517 36.6613C94.9517 36.6613 90.1409 49.5923 94.7544 59.9371L95.0503 60.5836Z" fill="#F6A460"/>
<path d="M94.7559 59.9372C95.9284 56.1236 97.9886 50.8307 101.397 53.121C101.802 53.2963 101.32 55.499 100.564 56.1346C98.5365 57.4386 96.4763 58.8413 95.0517 60.5837L94.7559 59.9372Z" fill="#F6A460"/>
<path d="M94.7331 60.7698C95.6537 62.5779 96.7933 64.1998 98.196 65.6682C98.3823 65.8655 98.6453 65.7778 98.7878 65.5915C100.41 63.4765 102.021 61.3725 103.642 59.2575C103.423 59.2575 103.204 59.2575 102.996 59.2575C105.067 63.5203 107.138 67.7832 109.209 72.0351C110.316 74.3035 111.642 76.276 114.02 77.3938C117.253 78.9061 120.902 78.3143 123.653 76.1007C124.025 75.7938 123.499 75.2678 123.116 75.5637C119.872 78.1828 115.16 78.117 112.124 75.1802C110.722 73.8213 109.987 71.9145 109.144 70.1831C107.313 66.4134 105.472 62.6437 103.642 58.8739C103.5 58.589 103.149 58.6767 102.996 58.8739C101.374 60.9889 99.7631 63.093 98.1412 65.2079C98.3385 65.186 98.5357 65.1531 98.733 65.1312C97.3741 63.7066 96.2783 62.1396 95.3907 60.3862C95.1605 59.9588 94.514 60.3424 94.7331 60.7698Z" fill="#4F3422"/>
<path d="M94.5906 36.5626C91.8839 43.8938 91.314 52.8798 94.4372 60.1233C94.6235 60.5617 95.281 60.1891 95.0838 59.7398C92.0483 52.6825 92.6948 43.8828 95.3139 36.7598C95.4783 36.3105 94.755 36.1133 94.5906 36.5626Z" fill="#4F3422"/>
<path d="M94.7559 59.937C94.8545 60.1562 94.9531 60.3644 95.0517 60.5835C95.4024 60.1561 95.786 59.7397 96.2133 59.3562C97.101 56.6494 98.7995 54.3262 101.539 53.5153C101.528 53.318 101.484 53.1756 101.397 53.1318C97.9886 50.8305 95.9284 56.1234 94.7559 59.937Z" fill="#4F3422"/>
<path d="M96.2119 59.3564C97.4941 58.1619 99.0392 57.1208 100.562 56.1346C101.154 55.6414 101.571 54.2059 101.538 53.5045C98.7981 54.3264 97.0996 56.6386 96.2119 59.3564Z" fill="#ED7E1C"/>
<path d="M111.445 43.3897C111.336 45.6581 109.418 47.4114 107.15 47.3128C104.881 47.2032 103.128 45.2855 103.227 43.0171C103.336 40.7487 105.254 38.9953 107.522 39.0939C109.802 39.1926 111.555 41.1103 111.445 43.3897Z" fill="#F6A460"/>
<path d="M106.919 45.0445C107.478 43.6418 108.037 42.2391 108.618 40.8474C108.804 40.3981 108.081 40.2118 107.894 40.6501C107.314 42.0418 106.755 43.4445 106.196 44.8472C106.01 45.2965 106.744 45.4938 106.919 45.0445Z" fill="#4F3422"/>
<path d="M103.314 59.0712L109.845 72.4625L106.568 54.1509L103.314 59.0712Z" fill="#4F3422"/>
<path d="M97.6158 47.1047C97.1226 48.2553 96.6405 49.406 96.1473 50.5566C96.0158 50.8635 96.3117 51.3128 96.6624 51.0717C97.2541 50.6552 97.8897 50.3703 98.5911 50.206C99.0623 50.0964 98.865 49.3731 98.3938 49.4827C97.6267 49.658 96.9254 49.9758 96.2788 50.4251C96.4542 50.6005 96.6186 50.7648 96.7939 50.9402C97.287 49.7895 97.7692 48.6389 98.2623 47.4882C98.4486 47.0499 97.8021 46.6664 97.6158 47.1047Z" fill="#4F3422"/>
<path d="M93.6588 48.6607C93.3629 51.1044 93.067 53.5372 92.7711 55.981C92.7492 56.1782 92.9574 56.3755 93.1437 56.3536C93.8012 56.2988 94.5135 55.8824 95.1162 55.6413C95.5546 55.4659 95.3683 54.7317 94.919 54.918C94.393 55.1262 93.7026 55.5646 93.1437 55.6084C93.2643 55.7289 93.3958 55.8604 93.5163 55.981C93.8122 53.5372 94.1081 51.1044 94.4039 48.6607C94.4697 48.1785 93.7136 48.1785 93.6588 48.6607Z" fill="#4F3422"/>
<path d="M95.4788 43.5541C96.2897 44.3102 97.3636 44.6828 98.4705 44.5404C98.9417 44.4746 98.9526 43.7294 98.4705 43.7842C97.5499 43.9048 96.6952 43.6527 96.0158 43.0171C95.6541 42.6993 95.1281 43.2254 95.4788 43.5541Z" fill="#4F3422"/>
<path d="M180.89 127.902C176.09 138.345 167.06 146.783 156.299 150.849C147.652 154.114 136.749 154.125 130.382 147.452C126.163 143.035 124.804 136.657 124.092 130.586C123.533 125.787 123.259 120.965 123.292 116.132C123.314 112.264 123.522 108.385 123.412 104.516C123.138 94.8508 122.349 84.8128 120.081 75.4105C117.297 63.8602 112.673 52.2442 104.246 43.861C104.092 43.7075 103.939 43.576 103.797 43.4445C102.471 42.2939 103.523 40.1241 105.254 40.409C106.284 40.5844 107.336 40.9131 108.081 41.5487C111.643 44.5623 111.741 43.4555 116.837 48.1019C113.166 45.2089 109.868 41.8556 107.04 38.1406C106.262 37.1105 107.15 35.6311 108.421 35.8941C111.873 36.6174 118.623 41.5158 122.525 44.0034C122.525 44.0034 112.355 35.412 112.355 34.2832C112.355 32.4093 115.325 33.1436 117.517 34.1956C121.845 36.2886 128.037 40.146 133.089 43.6308C134.152 44.365 135.335 42.8747 134.371 42.009C131.795 39.6967 128.464 37.8228 126.261 37.8119C125.845 37.8119 125.44 37.7571 125.067 37.5817C123.051 36.6174 124.135 34.7435 125.472 34.4367C126.426 34.2175 130.437 34.5353 131.346 34.8969C139.543 38.1516 142.151 41.5487 148.704 51.1593C152.595 56.8687 155.17 63.3561 157.274 69.9312C162.03 84.7909 166.72 99.0041 167.191 114.598C173.372 116.888 178.851 122.773 180.89 127.902Z" fill="#F6A460"/>
<path d="M123.893 124.318C123.433 116.691 123.981 109.053 123.663 101.426C123.367 94.0944 122.742 86.7632 121.351 79.5525C118.918 66.9393 114.304 53.8329 105.275 44.3867C104.551 43.6306 103.05 42.6114 103.773 41.4389C104.529 40.2115 106.568 41.0005 107.488 41.5923C108.474 42.2279 109.329 43.0717 110.326 43.7073C112.551 45.1428 114.6 46.5894 116.573 48.3756C116.748 48.2003 116.923 48.0249 117.11 47.8386C114.819 46.0195 112.672 44.047 110.688 41.8991C110.162 41.3293 109.647 40.7485 109.143 40.1458C108.814 39.7622 107.368 38.3595 107.379 37.9431C107.795 37.4061 108.2 36.8582 108.617 36.3213C108.814 36.376 109.022 36.4308 109.22 36.4966C109.768 36.6171 110.315 36.924 110.82 37.1651C114.907 39.1047 118.567 41.8882 122.359 44.321C122.709 44.5511 123.148 44.0141 122.819 43.7292C120.058 41.395 117.318 39.028 114.743 36.4966C114.239 36.0035 113.285 35.2912 112.989 34.6227C112.222 32.8474 115.323 33.7022 116.156 33.9981C119.663 35.2583 122.972 37.5048 126.107 39.4663C127.772 40.5074 129.416 41.5704 131.038 42.6662C131.904 43.247 133.164 44.6168 134.315 44.047C137.021 42.7101 132.506 39.9814 131.52 39.3677C130.282 38.6006 128.934 37.8883 127.498 37.5815C126.874 37.45 126.172 37.5267 125.57 37.3514C123.323 36.7048 124.704 34.8857 126.139 34.7323C128.89 34.4474 131.52 35.2473 133.953 36.4199C140.506 39.6088 144.396 45.4716 148.385 51.3234C148.659 51.7179 149.306 51.3453 149.032 50.9399C145.328 45.5045 141.635 39.7513 135.728 36.4856C133.153 35.061 130.786 34.1734 127.849 33.9981C126.326 33.9104 122.918 34.0309 123.652 36.5733C123.926 37.5376 124.967 38.0089 125.866 38.1404C128.211 38.4691 130.085 39.2253 132.046 40.5951C132.55 40.9457 133.032 41.3183 133.504 41.7019C133.821 41.9649 135.367 43.0936 133.295 43.2689C132.726 43.3237 130.961 41.68 130.446 41.3402C128.496 40.0471 126.512 38.7869 124.507 37.5705C121.537 35.7843 118.052 33.2419 114.534 32.7707C112.956 32.5625 111.28 33.5049 112.441 35.1049C113.921 37.1322 116.102 38.8198 117.964 40.4745C119.389 41.7457 120.836 42.995 122.293 44.2333C122.446 44.036 122.6 43.8388 122.753 43.6415C120.134 41.9539 117.581 40.1677 114.918 38.5458C113.658 37.7787 112.376 37.0226 111.039 36.398C110.184 36.0035 109.033 35.3679 108.058 35.4555C107.269 35.5213 106.601 36.124 106.447 36.9021C106.228 38.0308 107.258 38.9513 107.894 39.7403C110.469 42.9183 113.406 45.7784 116.606 48.3208C116.978 48.6167 117.504 48.1235 117.143 47.7838C115.323 46.1401 113.471 44.6716 111.378 43.3895C109.417 42.184 107.707 40.1567 105.285 39.9704C103.565 39.8499 102.272 41.5485 103.149 43.1374C103.828 44.3648 105.329 45.4058 106.261 46.4688C107.554 47.9592 108.737 49.5372 109.833 51.17C118.512 64.1777 121.625 80.4073 122.666 95.7382C123.312 105.25 122.611 114.751 123.192 124.252C123.17 124.8 123.926 124.8 123.893 124.318Z" fill="#4F3422"/>
<path d="M180.561 127.715C175.87 137.764 167.432 145.939 157.131 150.114C147.532 154.005 134.327 154.114 128.354 144.164C124.837 138.312 124.332 130.959 123.894 124.307C123.861 123.825 123.105 123.825 123.138 124.307C123.543 130.477 124.048 137.052 126.732 142.717C129.045 147.616 133.198 151.101 138.425 152.525C149.219 155.473 160.945 150.575 169.186 143.704C174.281 139.452 178.402 134.104 181.207 128.088C181.415 127.66 180.769 127.277 180.561 127.715Z" fill="#4F3422"/>
<path d="M103.489 42.8854C104.694 43.0279 105.834 42.2389 106.196 41.0882C106.338 40.628 105.615 40.4307 105.472 40.891C105.209 41.7458 104.366 42.2389 103.489 42.1403C103.007 42.0745 103.007 42.8306 103.489 42.8854Z" fill="#4F3422"/>
<path d="M106.94 38.1078C108.321 38.7434 109.888 38.3379 110.797 37.1215C111.093 36.738 110.436 36.3544 110.151 36.738C109.504 37.6037 108.299 37.8996 107.313 37.4503C106.885 37.264 106.502 37.9105 106.94 38.1078Z" fill="#4F3422"/>
<path d="M113.121 35.1816C114.283 35.3898 115.39 34.9405 116.091 33.9871C116.376 33.6036 115.729 33.22 115.444 33.6036C114.962 34.2611 114.118 34.5898 113.319 34.4474C112.847 34.3707 112.639 35.0939 113.121 35.1816Z" fill="#4F3422"/>
<path d="M124.408 35.8831C125.636 36.2995 126.929 36.0256 127.904 35.1927C128.277 34.8749 127.74 34.3489 127.367 34.6558C126.589 35.3133 125.559 35.4776 124.606 35.1489C124.145 35.0064 123.948 35.7297 124.408 35.8831Z" fill="#4F3422"/>
<path d="M86.3284 23.0289C92.9035 23.4672 98.9307 27.0288 102.492 32.5628C102.755 32.9683 103.402 32.5957 103.139 32.1792C99.4238 26.4041 93.1775 22.733 86.3284 22.2728C85.8463 22.2399 85.8463 22.996 86.3284 23.0289Z" fill="#4F3422"/>
<path d="M94.7003 18.7548C97.1879 19.4781 99.544 20.4972 101.779 21.8122C102.196 22.0643 102.579 21.4068 102.163 21.1657C99.8727 19.8178 97.4618 18.7658 94.8976 18.0315C94.4373 17.8891 94.2291 18.6123 94.7003 18.7548Z" fill="#4F3422"/>
<path d="M106.591 25.8121C106.218 27.4339 107.457 29.0667 109.111 29.1544C109.594 29.1763 109.594 28.4312 109.111 28.3983C107.95 28.3325 107.051 27.1381 107.314 26.0093C107.424 25.5381 106.701 25.3409 106.591 25.8121Z" fill="#4F3422"/>
<path d="M110.886 19.1495C110.295 20.6727 111.281 22.4809 112.87 22.8206C113.341 22.9192 113.538 22.196 113.067 22.0973C111.851 21.8343 111.16 20.4974 111.61 19.3467C111.785 18.8974 111.062 18.7112 110.886 19.1495Z" fill="#4F3422"/>
<path d="M100.497 121.754C99.5769 125.326 99.018 128.943 98.8208 132.625C98.7989 133.107 99.544 133.107 99.5769 132.625C99.7632 129.008 100.322 125.458 101.221 121.951C101.341 121.491 100.618 121.294 100.497 121.754Z" fill="#4F3422"/>
<path d="M167.454 109.842C167.333 115.902 167.212 121.962 167.092 128.011C167.081 128.493 167.837 128.493 167.848 128.011C167.969 121.951 168.089 115.891 168.21 109.842C168.21 109.36 167.465 109.36 167.454 109.842Z" fill="#4F3422"/>
<path d="M117.78 55.937C118.624 55.4109 119.467 54.8849 120.322 54.3699C120.739 54.1178 120.355 53.4603 119.939 53.7233C119.095 54.2493 118.251 54.7644 117.396 55.2904C116.991 55.5424 117.374 56.189 117.78 55.937Z" fill="#FFBD1A"/>
<path d="M123.499 52.0469C124.167 51.5209 124.836 50.9839 125.504 50.4579C125.888 50.162 125.351 49.6251 124.967 49.9209C124.299 50.4469 123.63 50.9839 122.962 51.5099C122.589 51.8168 123.126 52.3428 123.499 52.0469Z" fill="#FFBD1A"/>
<path d="M128.508 48.9785C129.275 48.5511 130.042 48.1237 130.809 47.6963C131.236 47.4552 130.853 46.8087 130.425 47.0498C129.658 47.4772 128.891 47.9045 128.124 48.3319C127.708 48.5621 128.08 49.2086 128.508 48.9785Z" fill="#FFBD1A"/>
<path d="M138.042 43.9158C138.645 43.9158 139.237 43.9158 139.839 43.9158C140.321 43.9158 140.321 43.1597 139.839 43.1597C139.237 43.1597 138.645 43.1597 138.042 43.1597C137.56 43.1597 137.56 43.9158 138.042 43.9158Z" fill="#FFBD1A"/>
<path d="M81.4844 26.6561C81.9775 26.2068 82.4816 25.7684 82.9747 25.3191C83.3364 24.9904 82.7994 24.4644 82.4378 24.7822C81.9446 25.2315 81.4405 25.6698 80.9474 26.1191C80.5858 26.4479 81.1227 26.9739 81.4844 26.6561Z" fill="#FFBD1A"/>
<path d="M89.1551 20.508C89.7031 19.8724 90.3606 19.3793 91.1277 19.0286C91.566 18.8204 91.1824 18.1739 90.7441 18.3821C89.9332 18.7656 89.2099 19.3026 88.6182 19.982C88.3113 20.3327 88.8373 20.8697 89.1551 20.508Z" fill="#FFBD1A"/>
<path d="M98.3276 15.7524C99.2372 15.1936 100.147 14.6347 101.056 14.0868C101.473 13.8347 101.089 13.1882 100.673 13.4402C99.7632 13.9991 98.8536 14.558 97.9441 15.1059C97.5386 15.3579 97.9222 16.0045 98.3276 15.7524Z" fill="#FFBD1A"/>
<path d="M99.9395 50.0742C100.641 51.7947 101.846 53.3179 103.359 54.4028C104.465 55.1918 106.361 55.5425 106.876 54.2932C107.391 53.0439 105.846 51.97 104.586 51.4878C103.096 50.918 101.594 50.3481 100.104 49.7673L99.9395 50.0742Z" fill="white"/>
<path d="M91.7852 82.8621C90.2729 84.4291 89.0017 86.2263 88.0045 88.166C87.7524 88.6701 87.5004 89.2399 87.6648 89.7769C87.9387 90.7193 89.3195 90.9056 90.1085 90.3248C90.8975 89.744 91.1934 88.7139 91.3578 87.7495C91.5989 86.2044 92.0153 84.4072 91.7852 82.8621Z" fill="white"/>
<path d="M87.0295 67.5532C85.4406 69.1422 84.0817 70.9613 83.0187 72.9448C82.7448 73.4599 82.4818 74.0406 82.6352 74.5995C82.8982 75.5748 84.3118 75.805 85.1447 75.2242C85.9666 74.6434 86.3063 73.5914 86.4816 72.5941C86.7665 71.0051 87.2378 69.1532 87.0295 67.5532Z" fill="white"/>
<path d="M68.9045 99.2341C67.3156 100.823 65.9567 102.642 64.8937 104.626C64.6198 105.141 64.3568 105.722 64.5102 106.28C64.7732 107.256 66.1868 107.486 67.0197 106.905C67.8416 106.324 68.1813 105.272 68.3566 104.275C68.6415 102.686 69.1128 100.834 68.9045 99.2341Z" fill="white"/>
</svg>
