<svg width="287" height="286" viewBox="0 0 287 286" fill="none" xmlns="http://www.w3.org/2000/svg">
<rect x="0.5" width="286" height="286" rx="143" fill="white"/>
<path d="M87.8231 74.8635C85.8397 78.5216 81.5137 80.1968 77.4443 81.0002C73.3748 81.8037 69.0659 82.0942 65.441 84.1455C62.5 85.8207 60.2259 88.6412 59.2171 91.8549C59.029 92.4702 58.8751 93.1369 59.0632 93.7352C59.6617 95.6839 62.6026 95.3078 64.2612 96.4702C66.0053 97.701 65.8685 100.504 64.5861 102.231C63.3037 103.94 61.2518 104.88 59.3539 105.855C57.4559 106.846 55.4896 108.094 54.686 110.077C53.7284 112.453 54.7885 115.325 56.7549 116.983C58.7212 118.624 61.4057 119.222 63.9705 119.188C65.6804 119.171 67.4245 118.897 68.9633 118.128C72.0582 116.556 73.751 113.239 75.7686 110.419C77.7691 107.598 80.8811 104.88 84.2837 105.513C84.6086 105.581 84.9506 105.684 85.1045 105.974C85.2925 106.333 85.0874 106.778 85.0532 107.188C84.9848 108.162 86.0107 108.966 86.9853 108.966C87.977 108.966 88.8491 108.368 89.5672 107.684C91.5677 105.752 92.645 102.898 92.4227 100.128C92.2175 97.6326 91.4481 94.2993 93.7393 93.2907C94.3548 93.0172 95.073 93.0343 95.7398 92.9489C100.151 92.4019 102.904 86.5728 100.527 82.8122C99.0057 80.4019 96.1673 79.2396 93.517 78.231L87.8231 74.8635Z" fill="#4F3422"/>
<path d="M90.8154 95.906C90.3024 97.171 90.0801 98.4359 90.3195 99.8034C90.6786 101.889 91.6019 102.709 90.0459 104.932C87.5837 108.47 83.651 108.573 79.7867 108.658C74.5545 108.761 71.9726 112.573 72.0239 117.581C72.0581 121.154 74.0074 126.521 78.5727 125.239C79.8722 124.88 81.2401 123.803 81.3427 122.367C81.4795 120.265 78.5898 119.513 76.9484 119.393C75.9395 119.325 75.9566 120.88 76.9484 120.949C79.838 121.171 80.009 123.974 77.239 123.837C75.9908 123.786 75.0675 122.863 74.5203 121.837C73.6141 120.162 73.4602 118.026 73.6483 116.162C73.9048 113.769 74.9478 111.256 77.4271 110.47C79.5473 109.786 81.9412 110.436 84.1127 110.094C86.9511 109.65 89.6356 108.111 91.3625 105.803C92.132 104.761 92.7988 103.598 92.662 102.248C92.4397 99.9744 91.3283 98.6752 92.32 96.2992C92.6962 95.3932 91.1915 94.9829 90.8154 95.906Z" fill="#4F3422"/>
<path d="M84.2326 79.3764C75.29 79.5815 66.5526 82.4874 59.3883 87.872C57.1142 89.5814 53.8654 91.9746 55.9515 95.0686C56.396 95.7181 57.0287 96.2309 57.6271 96.7267C58.0717 97.0856 58.7385 97.3762 59.0121 97.8891C59.3541 98.5728 58.824 100.983 58.1572 101.427C57.3706 101.94 55.9002 102.077 54.9939 102.333C54.4981 102.47 53.8654 102.778 53.3525 102.795C52.7027 103.086 52.1214 102.846 51.6084 102.111C50.0524 101.667 49.8472 101.291 50.9928 100.983C51.8991 100.539 51.1125 99.1882 50.2063 99.6326C48.7358 100.351 47.6586 101.086 48.5306 102.88C49.2659 104.385 50.9245 104.761 52.4804 104.573C54.7545 104.282 57.9178 103.53 59.9354 102.385C61.3546 101.581 61.9702 100.145 61.3717 98.5899C61.064 97.7865 60.4655 97.1027 59.867 96.5215C59.508 96.1797 59.0463 95.872 58.6701 95.5472C58.3111 95.2737 57.9691 94.9831 57.6442 94.6583C57.6784 93.5301 57.7126 92.3848 57.7468 91.2566C58.4479 89.9404 60.6878 88.8293 61.9189 87.9917C63.0816 87.2054 64.2956 86.4703 65.5438 85.8037C71.3231 82.7097 77.718 81.0857 84.2497 80.949C85.2414 80.9148 85.2414 79.3593 84.2326 79.3764Z" fill="#4F3422"/>
<path d="M193.801 36.2484C191.886 33.9749 188.62 33.1886 185.798 33.9578C182.618 34.8296 180.105 37.7698 180.395 41.1544C180.618 43.821 184.79 43.7526 184.567 41.0689C184.396 39.0005 186.414 37.5817 188.483 37.8382C190.774 38.1288 191.834 40.3168 191.527 42.2484C191.116 44.7612 188.791 45.8039 186.397 45.8552C184.824 45.8894 183.165 46.0945 182.037 47.3082C180.737 48.7099 180.395 51.0688 179.985 52.8637C179.386 55.4791 183.422 56.5047 184.02 53.8893C184.225 53.0005 184.448 52.1287 184.687 51.2569C184.824 50.7612 184.875 50.2483 185.285 50.0945C185.781 49.9235 186.397 50.0261 186.91 50.009C187.696 49.9919 188.5 49.9065 189.269 49.7013C192.142 48.9663 194.57 46.7441 195.408 43.8894C196.194 41.2911 195.562 38.3339 193.801 36.2484Z" fill="#C2B1FF"/>
<path d="M181.507 57.4106C178.891 56.761 177.865 60.8123 180.481 61.4448C183.08 62.0943 184.106 58.0602 181.507 57.4106Z" fill="#C2B1FF"/>
<path d="M22.9336 162.316C19.9755 162.008 17.0858 163.717 15.5811 166.213C13.8884 169.051 14.1277 172.897 16.6925 175.153C18.6931 176.914 21.6512 173.974 19.6335 172.196C18.0775 170.829 18.5392 168.401 20.2149 167.153C22.0786 165.769 24.3527 166.606 25.4642 168.213C26.9004 170.299 25.9771 172.675 24.2843 174.367C23.1729 175.478 22.1299 176.777 22.1641 178.435C22.1983 180.35 23.6004 182.281 24.5408 183.854C25.9258 186.145 29.5507 184.093 28.1657 181.786C27.7041 181.017 27.2424 180.23 26.8149 179.427C26.5756 178.965 26.2336 178.572 26.4388 178.179C26.6782 177.717 27.1911 177.358 27.5502 176.982C28.0973 176.418 28.6274 175.803 29.0378 175.136C30.5938 172.623 30.7989 169.341 29.4139 166.692C28.1486 164.299 25.6351 162.589 22.9336 162.316Z" fill="#C2B1FF"/>
<path d="M28.7644 186.076C26.439 187.427 28.5079 191.051 30.8333 189.7C33.1587 188.35 31.0898 184.743 28.7644 186.076Z" fill="#C2B1FF"/>
<path d="M269.753 87.9403C267.273 86.2993 263.922 86.4361 261.425 87.9745C258.604 89.701 257.031 93.2224 258.228 96.3847C259.186 98.8804 263.17 97.6668 262.212 95.1369C261.477 93.2053 263.016 91.2737 265.085 90.9489C267.376 90.5899 269 92.4019 269.24 94.3335C269.547 96.8634 267.598 98.5044 265.324 99.2223C263.819 99.6839 262.298 100.351 261.545 101.838C260.673 103.547 261.015 105.906 261.118 107.752C261.272 110.436 265.444 110.299 265.29 107.615C265.238 106.709 265.204 105.803 265.204 104.898C265.204 104.385 265.102 103.872 265.461 103.615C265.888 103.325 266.504 103.239 267 103.086C267.752 102.846 268.504 102.539 269.188 102.145C271.753 100.641 273.446 97.8377 273.463 94.8634C273.429 92.1284 272.01 89.4446 269.753 87.9403Z" fill="#C2B1FF"/>
<path d="M263.819 111.684C261.135 111.786 261.272 115.957 263.956 115.855C266.641 115.752 266.504 111.581 263.819 111.684Z" fill="#C2B1FF"/>
<path d="M89.9092 269.512C75.5292 284.195 49.6589 280.144 38.8868 261.392C29.8074 245.597 33.1245 223.512 38.6645 206.982C46.718 182.965 62.0726 161.735 78.1795 141.94C93.6196 122.932 107.247 111.496 128.997 98.983C150.986 86.3335 173.641 78.9661 199.067 83.8891C232.29 90.3164 245.986 118.897 259.853 147.171C273.805 175.649 277.772 210.076 268.368 240.709C263.546 256.418 253.372 266.76 238.479 275.084C225.467 282.349 208.796 282.213 195.134 276.469C181.455 270.708 163.536 265.922 157.876 235.837L89.9092 269.512Z" fill="#E1E1E0"/>
<path d="M169.212 266.093C174.53 270.076 180.822 272.503 186.67 275.563C191.304 277.99 196.399 279.58 201.495 280.64C212.455 282.913 225.108 283.153 234.991 277.17C235.846 276.64 235.059 275.29 234.204 275.819C224.304 281.819 211.412 281.341 200.503 278.828C195.63 277.7 190.894 276.076 186.499 273.683C180.976 270.674 175.077 268.537 170.016 264.743C169.195 264.127 168.409 265.495 169.212 266.093Z" fill="#4F3422"/>
<path d="M212.694 239.426C200.725 260.691 181.438 272.537 169.606 265.888C157.774 259.238 157.876 236.606 169.845 215.341C181.814 194.076 201.102 182.23 212.934 188.88C224.749 195.529 224.646 218.162 212.694 239.426Z" fill="#4F3422"/>
<path d="M106.187 249.632C94.2179 270.896 74.9306 282.742 63.0984 276.093C51.2661 269.443 51.3687 246.811 63.3378 225.546C75.3068 204.281 94.5941 192.435 106.426 199.085C118.242 205.734 118.139 228.367 106.187 249.632Z" fill="#4F3422"/>
<path d="M198.434 218.606C197.083 218.982 196.314 217.102 197.528 216.435C198.502 215.888 199.477 215.324 200.417 214.743C199.648 212.521 198.759 210.333 197.767 208.196C196.861 208.487 195.818 208.726 194.724 208.914C191.954 209.375 190.586 205.683 192.997 204.264C193.663 203.871 194.382 203.444 195.117 203.017C193.527 200.179 191.748 197.461 189.799 194.846L186.773 197.119C187.867 196.299 188.859 195.529 189.748 194.777C187.952 192.401 186.02 190.111 183.968 187.974C180.19 190.162 175.864 191.666 171.64 192.179C169.11 192.487 168.084 189.085 170.358 187.923C173.282 186.435 176.736 185.324 179.882 184.059C177.625 182.059 175.231 180.213 172.735 178.538C145.838 187.171 134.126 199.666 93.2601 202.572C73.9216 203.94 57.5752 241.546 64.8251 257.768C67.3044 263.307 71.8526 266.196 77.4952 267.631C90.0798 270.862 103.502 269.614 116.018 266.144C128.552 262.674 140.35 257.05 152.097 251.444C162.561 246.452 173.042 241.461 183.507 236.469C190.432 233.17 197.613 229.632 203.033 224.384C202.589 222.076 202.008 219.786 201.324 217.546C200.246 218.008 199.255 218.367 198.434 218.606Z" fill="#ED7E1C"/>
<path d="M177.711 105.616L131.219 71.4106C126.449 75.2397 121.661 79.0516 116.788 82.7268C117.233 95.325 120.293 110.607 131.066 119.581L138.794 107.154C138.794 107.154 145.805 118.675 152.712 130.009C159.176 140.607 174.274 141.41 181.831 131.547C181.934 131.41 182.037 131.291 182.122 131.154C188.363 122.983 186.363 111.222 177.711 105.616Z" fill="#ED7E1C"/>
<path d="M150.815 77.1028C151.037 81.2566 147.839 84.8122 143.667 85.0173C139.512 85.2395 135.956 82.043 135.751 77.872C135.528 73.7182 138.726 70.1627 142.898 69.9576C147.053 69.7354 150.592 72.9319 150.815 77.1028Z" fill="#ED7E1C"/>
<path d="M142.915 81.0343C143.685 78.3848 144.454 75.7181 145.275 73.0857C145.565 72.1284 144.061 71.7011 143.77 72.6754C142.949 75.325 142.18 77.9745 141.411 80.6241C141.12 81.5984 142.642 82.0087 142.915 81.0343Z" fill="#4F3422"/>
<path d="M138.777 107.171L153.106 130.419L143.838 97.6155L138.777 107.171Z" fill="#4F3422"/>
<path d="M117.199 85.9575C116.583 90.7609 116.292 95.8036 116.617 100.641C116.651 101.154 117.284 101.718 117.797 101.308C119.319 100.128 120.858 98.9489 122.38 97.7694C123.166 97.1711 122.38 95.8036 121.593 96.419C120.071 97.5985 118.532 98.7779 117.011 99.9574C117.404 100.18 117.797 100.402 118.19 100.641C117.883 95.8036 118.173 90.7609 118.772 85.9575C118.874 84.949 117.318 84.9661 117.199 85.9575Z" fill="#4F3422"/>
<path d="M126.141 89.0173C128.364 88.8122 130.587 88.6241 132.81 88.419C133.801 88.3335 133.818 86.7609 132.81 86.8464C130.587 87.0515 128.364 87.2395 126.141 87.4447C125.149 87.5472 125.132 89.1028 126.141 89.0173Z" fill="#4F3422"/>
<path d="M124.414 84.06C126.705 82.2823 128.842 80.3336 130.826 78.231C131.51 77.496 130.416 76.3849 129.715 77.1199C127.731 79.2224 125.594 81.1712 123.303 82.9489C122.516 83.5643 123.627 84.6754 124.414 84.06Z" fill="#4F3422"/>
<path d="M128.245 104.333C128.347 104.316 128.227 104.316 128.193 104.316C128.091 104.282 128.056 104.248 127.988 104.18C127.903 104.094 128.005 104.248 127.971 104.145C127.954 104.077 127.954 104.077 127.971 104.145C127.971 104.111 127.954 104.077 127.954 104.043C127.954 103.838 128.142 103.667 128.33 103.633C128.398 103.615 128.467 103.615 128.518 103.65C128.569 103.667 128.672 103.769 128.586 103.684C128.621 103.735 128.655 103.769 128.672 103.838C128.672 103.872 128.689 103.906 128.689 103.94C128.604 104.094 128.518 104.248 128.416 104.385C128.245 104.521 127.988 104.47 127.851 104.316C127.749 104.197 127.714 104.043 127.766 103.872C127.851 103.769 127.937 103.65 128.022 103.547C128.074 103.513 128.176 103.496 128.227 103.496C128.262 103.496 128.296 103.513 128.33 103.513C128.262 103.496 128.262 103.496 128.33 103.513C128.416 103.53 128.467 103.598 128.501 103.701C128.604 103.889 128.638 103.923 128.621 103.821C128.535 103.41 128.039 103.171 127.663 103.274C127.236 103.393 127.031 103.821 127.116 104.231C127.355 105.41 129.305 105.256 129.305 104.026C129.305 102.829 127.441 102.453 127.133 103.684C126.86 104.778 128.313 105.718 129.134 104.88C129.852 104.18 129.27 102.675 128.21 102.795C127.8 102.846 127.407 103.12 127.424 103.581C127.492 103.94 127.817 104.385 128.245 104.333Z" fill="#4F3422"/>
<path d="M186.397 250.213C168.016 245.512 120.978 205.033 104.135 176.589C99.1597 168.196 95.0731 159.581 93.0212 150.042C91.944 145.051 93.7052 139.649 96.9539 139.444C95.0731 135.718 97.142 131.598 100.767 129.53C102.118 128.743 104.067 130.487 104.939 129.188C105.657 128.111 105.64 126.726 105.589 125.427C105.298 118.914 106.683 108.778 110.359 103.085C111.915 100.675 115.711 101.718 115.78 104.59C115.831 106.658 115.574 108.846 115.301 110.008C113.659 117.085 114.942 123.085 115.506 130.35C115.899 135.376 117.404 139.393 120.037 142.914C122.174 145.769 126.774 144.145 126.569 140.572C126.415 137.803 125.355 134.897 123.884 132.778C122.465 130.76 120.943 127.94 120.106 125.119C119.062 121.564 121.302 117.957 124.295 120.128C142.094 133.068 142.949 141.683 153.089 151.29C169.469 166.794 186.004 182.418 205.171 194.299C208.865 196.589 212.814 198.897 215.02 202.64C219.483 210.196 215.961 223.29 211.891 231.067C204.539 245.187 194.416 252.247 186.397 250.213Z" fill="#ED7E1C"/>
<path d="M186.602 249.443C180.224 247.751 174.342 243.922 168.905 240.281C160.971 234.965 153.499 228.965 146.318 222.692C131.493 209.734 116.891 195.29 106.273 178.589C102.477 172.623 99.1424 166.282 96.6631 159.649C95.3978 156.282 94.1838 152.692 93.6366 149.119C93.2092 146.299 93.4144 140.726 97.1419 140.179C97.689 140.094 97.7916 139.427 97.6035 139.034C96.2527 135.94 97.7403 131.188 101.348 130.367C102.802 130.043 104.392 131 105.52 129.632C106.717 128.196 106.324 125.837 106.29 124.145C106.255 121.564 106.444 118.966 106.82 116.419C107.145 114.145 107.606 111.872 108.273 109.667C108.854 107.752 110 103.12 112.274 102.573C116.036 101.667 114.856 107.872 114.514 109.786C113.984 112.641 113.625 115.393 113.693 118.299C113.796 123.632 114.138 129.513 115.352 134.709C116.104 137.94 117.917 143.564 121.371 144.846C124.055 145.837 127.013 143.991 127.321 141.154C127.834 136.162 123.987 132.213 122.038 128.025C121.336 126.504 120.516 124.692 120.653 122.983C120.721 122.008 120.977 120.607 122.157 120.282C122.892 120.077 124.158 121.068 124.705 121.393C127.372 123 129.852 125.41 132.126 127.53C135.34 130.521 138.247 133.82 140.88 137.342C142.983 140.162 144.933 143.068 147.104 145.837C149.96 149.461 153.294 152.555 156.628 155.718C165.297 163.888 174.052 172.008 183.302 179.512C187.731 183.102 192.262 186.555 196.93 189.82C201.717 193.153 207.36 195.82 211.652 199.786C220.645 208.11 215.242 223.683 210.13 232.691C205.718 240.435 197.015 251.871 186.602 249.443C185.627 249.221 185.2 250.726 186.192 250.948C194.536 252.879 202.076 246.469 206.864 240.384C213.259 232.264 218.098 221.512 217.875 210.999C217.773 206.093 216.183 201.7 212.455 198.384C208.061 194.487 202.538 191.786 197.716 188.435C186.465 180.623 176.086 171.598 165.998 162.316C158.27 155.188 150.695 148.333 144.556 139.769C142.026 136.231 139.41 132.743 136.417 129.581C134.639 127.701 132.741 125.923 130.775 124.231C128.791 122.538 126.329 119.94 123.867 118.983C119.883 117.444 118.601 122.384 119.336 125.308C120.003 127.974 121.473 130.555 122.978 132.829C124.448 135.068 127.458 140.538 124.807 142.846C121.798 145.427 119.387 140.812 118.327 138.555C116.822 135.307 116.429 131.906 116.104 128.384C115.814 125.325 115.42 122.282 115.301 119.205C115.164 115.701 115.728 112.436 116.258 108.983C116.566 107 117.113 104.197 115.814 102.453C114.805 101.12 112.924 100.607 111.385 101.239C109.59 101.974 108.735 104.179 108.034 105.838C106.854 108.607 106.084 111.547 105.572 114.504C105.093 117.256 104.802 120.043 104.751 122.829C104.734 123.991 105.212 125.974 104.785 127C104.528 127.308 104.272 127.598 104.016 127.906C103.759 128.743 103.297 129 102.665 128.675C102.152 128.761 101.639 128.487 101.092 128.607C98.9543 129.051 96.9367 131.615 96.1159 133.496C95.1926 135.649 95.3465 137.752 96.2698 139.872C96.4237 139.495 96.5776 139.102 96.7315 138.726C92.1149 139.41 91.5506 145.923 92.0978 149.495C93.1408 156.179 95.9621 162.777 98.9543 168.812C103.656 178.264 109.692 186.828 116.48 194.897C130.382 211.392 146.608 226.418 164.169 238.948C170.82 243.7 178.172 248.896 186.192 251.016C187.166 251.221 187.577 249.7 186.602 249.443Z" fill="#4F3422"/>
<path d="M103.502 129.701C104.101 137.701 106.289 145.205 110.376 152.128C110.889 153 112.24 152.213 111.727 151.342C107.777 144.658 105.657 137.427 105.075 129.701C105.007 128.692 103.434 128.692 103.502 129.701Z" fill="#4F3422"/>
<path d="M96.2358 139.667C96.6462 146.555 98.5099 153.137 101.759 159.222C102.237 160.111 103.588 159.325 103.109 158.436C99.9975 152.59 98.2022 146.282 97.8089 139.667C97.7405 138.675 96.1674 138.675 96.2358 139.667Z" fill="#4F3422"/>
<path d="M110.017 108.214C112.205 107.359 113.676 105.222 113.505 102.846C113.437 101.855 111.863 101.838 111.949 102.846C112.069 104.487 111.18 106.094 109.606 106.709C108.666 107.068 109.076 108.59 110.017 108.214Z" fill="#4F3422"/>
<path d="M124.072 120.162C123.371 123.461 125.696 126.641 129.013 127.085C130.005 127.222 130.005 125.649 129.013 125.513C126.722 125.205 125.115 122.778 125.577 120.573C125.782 119.598 124.277 119.171 124.072 120.162Z" fill="#4F3422"/>
<path d="M117.934 153.034C119.182 151.957 120.413 150.863 121.661 149.786C122.414 149.12 121.302 148.026 120.55 148.675C119.302 149.752 118.071 150.846 116.822 151.923C116.07 152.59 117.181 153.684 117.934 153.034Z" fill="#E1E1E0"/>
<path d="M109.299 161.854C110.376 160.778 111.453 159.701 112.53 158.624C113.249 157.906 112.137 156.812 111.419 157.513C110.342 158.589 109.265 159.666 108.187 160.743C107.486 161.461 108.581 162.572 109.299 161.854Z" fill="#E1E1E0"/>
<path d="M102.442 169.239C103.092 168.641 103.725 168.025 104.374 167.427C105.11 166.743 103.998 165.632 103.263 166.316C102.613 166.914 101.981 167.529 101.331 168.128C100.596 168.829 101.707 169.923 102.442 169.239Z" fill="#E1E1E0"/>
<path d="M136.092 140.829C137.392 140.248 138.777 139.991 140.196 139.991C141.205 139.991 141.205 138.436 140.196 138.436C138.486 138.419 136.862 138.795 135.306 139.478C134.399 139.889 135.186 141.239 136.092 140.829Z" fill="#E1E1E0"/>
<path d="M186.602 180.162C188.979 177.085 192.416 173.649 196.143 174.794C199.238 175.769 200.503 179.376 201.324 182.504C202.35 180.606 203.615 178.487 205.975 178.435C207.172 178.401 208.317 178.965 209.172 179.82C210.762 181.393 211.31 183.581 211.84 185.683C212.147 182.863 216.422 182.162 218.542 184.042C220.663 185.923 221.107 189.034 221.312 191.854C221.877 199.529 221.688 207.529 218.2 214.435C217.773 215.273 217.003 215.905 216.063 216.042C213.686 216.367 212.866 213.307 212.831 211.051C212.712 205.102 210.66 190.367 210.66 190.367C210.66 190.367 209.258 201.837 208.146 206.264C207.821 207.563 207.787 208.999 207.12 210.572C205.291 214.982 199.306 213.905 199.392 209.136C199.443 206.179 199.751 203.205 199.802 200.726C199.922 196.111 200.042 191.495 200.161 186.863C195.75 194.948 190.689 203.615 181.968 206.794C181.575 206.931 181.13 206.982 180.72 206.88C179.164 206.487 179.267 204.658 179.626 203.307C181.455 196.316 187.252 189.495 191.458 183.615L186.602 180.162Z" fill="#ED7E1C"/>
<path d="M187.149 180.726C189.047 178.333 191.868 174.863 195.288 175.461C198.674 176.059 199.768 179.854 200.555 182.726C200.726 183.359 201.666 183.512 201.991 182.914C203.119 180.846 204.812 178.213 207.633 179.649C209.873 180.794 210.54 183.683 211.087 185.905C211.275 186.641 212.438 186.675 212.592 185.905C212.985 184.025 215.157 183.41 216.85 183.991C218.628 184.606 219.534 186.504 219.996 188.196C220.834 191.324 220.782 194.897 220.765 198.111C220.748 201.581 220.457 205.085 219.585 208.452C219.226 209.837 218.628 213.136 217.516 214.059C216.593 214.333 215.653 214.589 214.729 214.863C214.422 214.521 214.199 214.128 214.08 213.683C213.772 212.931 213.686 212.162 213.618 211.358C213.105 204.264 212.387 197.222 211.395 190.179C211.258 189.222 209.959 189.598 209.856 190.384C209.087 196.555 208.454 202.999 206.778 209.016C206.146 211.29 204.077 213.786 201.529 212.093C199.341 210.64 200.195 206.982 200.332 204.777C200.708 198.828 200.743 192.846 200.897 186.897C200.914 186.128 199.802 185.82 199.443 186.504C195.596 193.512 191.338 201.239 183.969 205.085C182.909 205.649 180.515 207.307 180.156 204.589C180.036 203.615 180.754 202.128 181.096 201.239C181.934 199.034 183.097 196.965 184.345 194.965C186.722 191.17 189.492 187.683 192.108 184.059C192.689 183.239 191.338 182.453 190.757 183.273C189.013 185.7 172.838 206.384 180.703 207.717C182.55 208.025 184.926 206.435 186.397 205.495C188.466 204.179 190.312 202.538 191.954 200.709C195.562 196.709 198.229 191.991 200.811 187.29C200.332 187.153 199.836 187.034 199.358 186.897C199.255 190.863 199.152 194.811 199.05 198.777C198.964 202.35 198.229 206.213 198.605 209.769C198.964 213.153 202.521 215.324 205.599 213.529C207.702 212.298 208.215 209.94 208.642 207.717C209.07 205.461 209.566 203.205 209.942 200.931C210.506 197.427 210.985 193.923 211.429 190.401C210.916 190.47 210.403 190.538 209.89 190.606C210.42 194.401 210.899 198.196 211.31 201.991C211.583 204.555 211.857 207.119 211.994 209.7C212.096 211.666 212.028 213.905 213.293 215.563C214.404 217.016 216.319 217.256 217.79 216.145C220.013 214.469 220.851 210.128 221.398 207.598C222.15 204.059 222.372 200.401 222.321 196.794C222.27 193.495 222.321 189.837 221.158 186.692C220.286 184.367 218.542 182.418 215.943 182.264C213.72 182.128 211.566 183.256 211.104 185.529C211.6 185.529 212.113 185.529 212.609 185.529C211.84 182.435 210.574 178.435 206.915 177.803C203.82 177.256 201.974 179.786 200.657 182.179C201.136 182.247 201.615 182.299 202.093 182.367C201.187 179.017 199.785 174.931 196.006 174.025C191.834 173.017 188.397 176.76 186.089 179.666C185.422 180.401 186.534 181.512 187.149 180.726Z" fill="#4F3422"/>
<path d="M118.241 82.9489C108.085 79.8036 97.9453 76.6413 87.8058 73.4447C87.5836 75.6156 88.7121 77.6669 89.8064 79.5472C91.8753 83.1028 94.1323 86.8463 97.8086 88.6925C101.228 90.4019 105.349 90.1284 108.94 88.8292C112.53 87.5301 115.677 85.2908 118.789 83.0857L118.241 82.9489Z" fill="#ED7E1C"/>
<path d="M105.794 195.581C101.263 191.581 95.7055 189.187 89.6526 188.777C82.1463 188.281 74.6399 190.469 67.2704 188.316C67.3901 188.743 67.4927 189.187 67.6124 189.615C71.2202 186.401 76.5721 186.88 81.069 187.051C86.096 187.239 91.0376 187.854 95.7568 189.632C95.8936 189.136 96.0304 188.623 96.1671 188.128C90.8495 186.743 85.6173 185.085 80.4706 183.153C77.8545 182.162 75.0161 181.256 72.571 179.871C72.1264 179.649 71.7161 179.376 71.3399 179.051C71.357 178.128 71.3741 177.205 71.3912 176.282C71.6135 175.974 72.5881 175.803 72.9643 175.735C74.3835 175.461 76.042 175.752 77.427 175.991C87.6862 177.752 96.1159 184.709 103.879 191.17C104.648 191.803 105.759 190.709 104.99 190.059C99.8605 185.786 94.6454 181.495 88.7121 178.35C85.9251 176.88 82.9841 175.649 79.9063 174.897C77.3415 174.264 74.1954 173.564 71.6306 174.47C70.0404 175.034 68.7409 176.333 69.0658 178.145C69.4762 180.435 72.1777 181.444 74.0244 182.23C81.069 185.239 88.336 187.7 95.7568 189.632C96.7485 189.888 97.1076 188.47 96.1671 188.128C90.7127 186.076 84.9333 185.581 79.154 185.444C74.6741 185.341 70.0062 185.393 66.4839 188.521C66.0393 188.931 66.2958 189.666 66.8259 189.82C73.084 191.649 79.4447 190.487 85.8225 190.281C92.85 190.076 99.3475 191.974 104.665 196.657C105.435 197.341 106.546 196.247 105.794 195.581Z" fill="#4F3422"/>
<path d="M123.474 73.7524C124.448 68.6926 124.739 63.5645 124.158 58.4363C123.798 55.291 123.029 51.5475 120.447 49.4278C115.181 45.1202 108.786 53.9577 110.769 58.9833C113.591 66.1115 122.79 52.009 123.935 49.5304C124.824 47.6159 126.38 43.5475 123.183 42.8296C121.61 42.4706 119.849 43.4962 118.447 44.1116C116.343 45.0518 114.309 46.1629 112.377 47.4278C108.717 49.8381 105.417 52.7611 102.596 56.1115C100.732 58.3167 97.1075 62.0431 98.6806 65.2397C100.048 68.026 103.605 67.1029 105.862 66.1798C109.778 64.573 113.522 62.4876 116.976 60.0431C124.072 55.0175 130.091 48.5218 134.639 41.1202C136.554 37.992 138.708 34.2826 136.434 30.7442C134.314 27.4451 130.313 27.069 126.808 27.9237C118.293 30.0091 109.624 34.7613 102.784 40.1629C95.5002 45.9236 89.909 53.462 87.31 62.4363C87.2416 62.6756 87.31 63.0346 87.5151 63.2055C91.4649 66.4534 97.7914 62.1628 101.604 60.3166C107.093 57.6842 112.411 54.6586 117.318 51.0517C126.346 44.4193 135.716 34.5048 138.007 23.1374C140.846 9.37681 122.054 11.3255 114.018 13.958C108.102 15.9067 102.665 19.0861 97.7572 22.8981C92.6447 26.8468 87.4638 31.5818 83.7705 36.9151C81.2057 40.6245 79.0855 46.7099 83.6337 49.8894C87.9084 52.8808 94.1836 50.2483 98.5096 48.727C111.163 44.2826 124.038 37.3253 133.357 27.5305C135.306 25.4793 137.101 23.2571 138.623 20.8639C140.093 18.5733 142.487 15.1545 141.889 12.2486C140.897 7.47938 134.229 8.62467 130.843 9.01783C117.968 10.5392 105.469 14.9836 94.3546 21.6844C88.6608 25.1203 83.3089 29.1374 78.4187 33.6331C73.5968 38.0775 68.8092 43.0005 66.2102 49.1201C65.2356 51.4278 64.8423 53.5475 66.2273 55.7697C67.5952 57.9577 70.0061 59.6158 72.3486 60.5901C77.3414 62.6927 83.0695 62.026 88.1649 60.6414C94.765 58.8637 101.177 55.8722 107.264 52.7953C113.488 49.6671 119.866 46.2484 125.064 41.5475C129.629 37.4108 133.134 32.0091 134.194 25.8724C134.656 23.2058 134.913 19.787 133.733 17.2571C132.638 14.8981 129.903 14.1118 127.594 13.4622C107.811 7.83836 72.0922 22.693 80.9151 48.0945C82.4197 52.4193 85.4462 56.0261 89.9431 57.3423C95.7567 59.0517 103.007 58.1115 108.906 57.2056C120.875 55.3936 133.322 50.2312 141.239 40.7441C144.796 36.4877 147.48 30.5732 145.103 25.1032C143.12 20.5391 138.247 18.1802 133.562 17.428C120.635 15.3768 107.692 21.4793 97.535 28.9151C92.8841 32.3339 87.0364 36.2655 84.3177 41.5133C82.0949 45.7868 83.4286 50.7099 88.7633 50.9492C95.0214 51.2227 102.066 48.6586 107.743 46.2825C114.069 43.633 120.037 40.1458 125.714 36.2997C131.253 32.539 136.554 28.4194 141.786 24.2314C142.453 23.7015 141.701 22.7955 141.017 22.9323C123.217 26.1972 106.888 34.7954 93.6365 47.0347C93.2261 47.4107 93.4142 47.9748 93.7903 48.2654C98.2018 51.5133 103.673 49.1543 108.153 47.2911C113.266 45.1543 118.276 42.7612 123.012 39.8723C127.765 36.9664 132.262 33.5818 136.178 29.5989C138.093 27.6502 139.888 25.5476 141.461 23.3254C142.521 21.8554 143.428 20.1289 142.265 18.4195C141.222 16.8981 139.153 16.6075 137.477 16.4537C134.16 16.1631 130.826 16.4708 127.56 17.0349C121.165 18.146 114.839 20.0605 108.735 22.2314C96.5945 26.5733 85.0016 32.539 74.4689 39.9407C70.0061 43.0689 65.7315 46.556 62.2262 50.7611C60.619 52.6928 59.1656 54.7611 57.9516 56.9833C57.0282 58.6756 55.1816 61.5987 55.8313 63.65C56.4127 65.4106 58.7723 66.2482 60.3454 66.7781C62.9444 67.6499 65.6973 67.7183 68.3988 67.3422C74.0927 66.573 79.4788 64.0431 84.6768 61.7183C105.879 52.2483 125.936 39.257 140.093 20.5562C142.675 17.1545 145.77 12.8811 140.846 9.90672C136.451 7.24007 130.193 9.13749 125.491 9.83834C114.189 11.5135 102.887 13.4793 91.9437 16.8297C81.0177 20.1631 70.4678 24.9323 61.3713 31.9066C54.2583 37.3595 43.7084 46.5048 50.9582 56.0261C58.2251 65.5816 73.9559 60.556 83.0011 56.7953C94.6624 51.9577 105.588 44.6415 115.66 37.086C120.635 33.3596 125.389 29.2741 129.492 24.6075C132.912 20.7272 136.127 16.1631 135.75 10.7443C135.648 9.25715 135.169 6.28281 133.818 5.37683C133.066 4.88111 131.92 5.05205 131.065 5.01786C129.441 4.94949 127.834 4.93239 126.209 4.96658C119.968 5.12042 113.744 6.0435 107.709 7.59904C95.637 10.7101 84.2835 16.2486 73.9388 23.0861C69.1512 26.2485 63.4744 29.6673 60.277 34.5732C57.7806 38.4023 56.994 43.9407 60.106 47.6672C63.2522 51.4449 68.9118 51.9577 73.46 52.3509C79.7523 52.8979 86.1301 52.3851 92.3028 51.0688C103.417 48.727 115.762 43.9065 123.987 35.8211C127.611 32.2655 130.159 27.9066 130.86 22.8468C130.912 22.4195 130.758 22.0263 130.313 21.8895C118.105 18.2144 104.853 20.1289 93.8929 26.522C88.2504 29.804 83.1208 34.2484 79.2565 39.5305C75.1357 45.1373 80.5902 49.8723 85.9763 51.5988C92.5763 53.7184 100.254 52.5902 106.785 50.8295C114.206 48.8295 121.199 45.3766 127.714 41.3253C133.066 37.992 140.829 33.8895 143.086 27.5476C145.138 21.7699 140.487 16.6246 134.707 16.5221C130.433 16.4537 126.004 18.3169 122.106 19.8896C118.241 21.4622 114.497 23.3254 110.992 25.5818C104.87 29.4792 98.1334 34.9493 98.3728 42.915C98.3899 43.3595 98.7148 43.6672 99.1593 43.7014C115.42 44.727 130.655 36.0946 139.752 22.8639C140.093 22.3682 139.632 21.6844 139.068 21.6844C124.859 21.8554 111.641 28.5904 102.357 39.2228C101.878 39.7698 102.237 40.4706 102.904 40.5561C109.572 41.3424 116.258 39.445 121.764 35.6159C124.448 33.7527 126.825 31.4621 128.825 28.8639C130.758 26.3511 133.271 22.7955 133.545 19.5306C134.126 12.7956 122.02 14.4879 118.31 15.1204C114.446 15.7699 110.684 17.052 107.196 18.8468C105.383 19.7699 103.656 20.8468 101.998 22.0434C101.006 22.7784 99.6552 23.5477 99.2277 24.7784C96.9707 31.3083 111.676 26.71 113.385 26.163C117.404 24.881 121.319 23.24 125.047 21.24C128.244 19.5306 132.108 17.6161 134.348 14.6588C136.127 12.2999 136.4 9.30843 134.759 6.79563C132.998 4.11188 129.903 3.20591 126.842 3.06916C119.062 2.71018 110.804 3.77001 103.28 5.7529C95.6541 7.76998 88.3701 11.1717 82.3172 16.2656C77.9057 19.975 72.9642 27.2912 77.9741 32.5903C82.3855 37.257 90.6784 35.4963 96.0645 34.0775C104.203 31.9408 111.693 27.8895 118.669 23.2741C122.362 20.8297 125.953 18.1973 129.475 15.4964C131.732 13.7699 135.528 11.6845 135.853 8.50502C136.554 1.78711 123.474 5.65034 120.464 6.41956C106.05 10.1289 89.6696 20.0947 84.2835 34.6929C83.0524 38.0262 82.7275 41.633 84.7794 44.7099C86.4721 47.2569 89.2421 48.8808 92.0805 49.8381C99.9117 52.4705 108.307 50.1287 115.608 46.9834C123.798 43.445 131.63 38.898 139.05 33.9407C145.685 29.4963 153.277 24.6246 158.269 18.2656C160.338 15.6503 161.638 12.7785 162.031 9.46228C162.065 9.1204 161.757 8.79561 161.45 8.71014C145.975 4.48795 129.834 10.3341 115.283 15.411C102.494 19.8896 90.1141 27.0177 85.6001 40.5903C85.2752 41.5475 86.797 41.9578 87.1048 41.0005C91.653 27.2912 104.614 20.6588 117.438 16.3169C131.288 11.6332 146.369 6.21443 161.022 10.2144C160.834 9.958 160.646 9.71868 160.441 9.46228C159.637 16.2486 154.046 20.7443 149.036 24.7271C143.718 28.9322 138.161 32.8125 132.382 36.351C126.415 39.992 120.191 43.4621 113.71 46.1116C107.486 48.6586 100.476 50.5047 93.7903 48.7441C90.6613 47.9065 87.3955 46.2825 85.754 43.3424C83.7534 39.7698 85.3949 35.4963 87.1219 32.163C90.0628 26.4707 94.765 21.8724 99.8604 18.0776C105.212 14.0947 111.197 10.9494 117.557 8.91527C120.31 8.04348 123.115 7.34263 125.953 6.8811C127.56 6.62469 129.236 6.36828 130.877 6.2999C132.194 6.24862 134.69 6.09478 134.229 8.74433C134.058 9.78706 133.066 10.6247 132.331 11.3084C129.817 13.6845 126.688 15.6845 123.901 17.7186C121.182 19.7015 118.43 21.616 115.591 23.4109C110.12 26.8639 104.357 29.8895 98.1676 31.8553C93.038 33.4792 85.3607 35.6843 80.3679 32.539C72.9471 27.8724 80.8638 19.2058 85.2923 15.8896C95.3976 8.31699 108.102 5.44521 120.516 4.77855C123.645 4.60761 127.304 4.16317 130.279 5.27427C135.169 7.10332 135.186 12.2144 131.544 15.3084C126.517 19.599 119.609 22.522 113.403 24.5391C111.658 25.1032 109.897 25.5989 108.102 26.0092C106.512 26.3852 103.913 27.3596 102.288 26.8297C98.9028 25.7186 102.887 23.2912 104.221 22.4024C105.674 21.4451 107.179 20.5733 108.752 19.8212C112.035 18.2314 115.54 17.1203 119.148 16.5733C122.328 16.0776 126.893 15.5306 129.971 16.7443C136.862 19.4451 123.576 32.5049 120.669 34.4878C115.42 38.0433 109.23 39.7356 102.904 39.0005C103.092 39.445 103.28 39.8894 103.451 40.3339C112.462 29.9921 125.235 23.428 139.05 23.2571C138.828 22.8639 138.606 22.4707 138.384 22.0776C129.578 34.8638 114.839 43.1202 99.1422 42.1287C99.3987 42.3851 99.6552 42.6586 99.9288 42.915C99.7236 36.0262 105.366 31.2057 110.615 27.6844C115.865 24.1801 121.627 21.4964 127.611 19.5477C130.929 18.4708 134.844 17.24 138.196 18.8639C142.06 20.7272 142.949 25.1374 140.846 28.6758C137.768 33.8724 131.185 37.3937 126.158 40.4535C115.796 46.7783 103.314 52.1287 90.9007 50.9663C87.9939 50.6928 85.0871 49.9406 82.642 48.2825C80.7954 47.0347 78.9487 45.1885 79.2565 42.7441C79.4617 41.1031 81.4451 39.2228 82.471 38.0262C86.0276 33.9066 90.2851 30.3852 95.0214 27.6844C105.588 21.6502 118.224 19.8725 129.92 23.3938C129.732 23.069 129.561 22.7442 129.373 22.4365C127.953 32.6245 119.045 38.7612 110.496 43.0176C100.442 48.0261 89.2934 51.0859 78.0254 51.0005C73.1181 50.9663 66.1931 50.9663 62.2262 47.5817C57.0111 43.1544 60.5164 35.7527 64.5687 31.992C68.5185 28.3169 73.272 25.2912 77.8373 22.4536C82.3513 19.6502 87.0193 17.1033 91.8753 14.8981C101.724 10.4195 112.308 7.37682 123.132 6.67597C125.628 6.52212 128.124 6.47084 130.621 6.55631C131.852 6.60759 132.673 6.47084 133.357 7.54776C134.194 8.8298 134.28 10.7956 134.194 12.2657C133.87 17.975 129.39 22.6246 125.594 26.4878C117.934 34.2484 108.7 40.4022 99.5184 46.18C90.3193 51.9748 80.4534 57.2568 69.6299 59.1713C64.2952 60.1115 57.8661 60.5218 53.5743 56.5902C48.5644 51.9919 49.6074 45.6501 53.7282 40.898C60.0547 33.616 68.7579 28.0946 77.4098 24.0092C86.1814 19.8725 95.5344 17.1203 104.99 15.052C114.343 13.0007 124.089 11.0691 133.647 10.2657C136.195 10.0606 139.82 10.0606 141.41 12.4708C143.257 15.2571 139.187 19.24 137.563 21.3084C134.502 25.1887 131.151 28.8468 127.577 32.2655C120.379 39.1544 112.308 45.0689 103.759 50.1629C95.3121 55.2056 86.3695 59.6158 77.2218 63.2397C72.246 65.2055 66.5009 67.0345 61.1661 65.4277C59.6443 64.9662 57.3189 64.2311 57.3873 62.1457C57.4215 61.0175 58.4303 59.5303 58.9262 58.5389C60.2086 56.0432 61.7817 53.7355 63.5941 51.5988C70.16 43.8723 79.2394 38.2313 88.0281 33.3596C97.5862 28.0433 107.743 23.8382 118.276 20.8639C123.867 19.2913 129.68 17.8041 135.545 17.9409C136.708 17.975 138.401 17.8383 139.444 18.3682C142.077 19.6844 140.606 21.9066 139.392 23.4964C137.802 25.5818 136.041 27.5476 134.16 29.3767C127.013 36.351 118.156 41.2911 109.042 45.2227C104.716 47.086 98.937 50.1458 94.5769 46.915C94.6282 47.3253 94.6795 47.7355 94.7308 48.1458C107.811 36.0775 123.884 27.6673 141.427 24.4536C141.171 24.0263 140.914 23.5818 140.658 23.1545C129.048 32.4536 116.754 41.821 102.459 46.6244C99.1935 47.7184 95.8422 48.5731 92.4225 49.0859C90.8836 49.3253 89.1053 49.6329 87.5493 49.2569C84.0783 48.4022 84.369 44.8296 85.6514 42.3168C87.2587 39.1544 90.1996 36.8467 92.8499 34.5903C95.9619 31.9408 99.2448 29.4621 102.699 27.257C108.649 23.4622 115.198 20.4366 122.191 19.2058C128.364 18.1289 136.486 18.0092 141.393 22.5904C147.719 28.4878 142.881 37.1715 137.871 42.0262C132.673 47.0689 126.278 50.727 119.455 53.0517C113.129 55.2056 106.478 56.2483 99.8262 56.4705C92.9354 56.6927 86.2498 56.1115 83.0353 49.2227C80.6244 44.0603 80.7099 37.5305 82.984 32.3168C85.754 25.9921 91.4991 21.5306 97.6204 18.7101C104.238 15.6503 111.847 13.7528 119.148 13.8554C122.602 13.9067 128.142 14.2315 131.014 16.4708C134.297 19.0349 132.912 25.4964 131.835 28.7784C129.338 36.3852 123.234 41.7185 116.634 45.8039C109.914 49.9748 102.733 53.5133 95.3976 56.4705C89.4644 58.8637 82.8301 61.2055 76.3326 60.1286C73.0497 59.5816 69.4077 57.9064 67.561 54.9833C65.3382 51.4962 69.2196 46.2484 71.3056 43.4621C79.8378 32.1117 92.7986 23.2571 105.64 17.5648C111.932 14.7785 118.566 12.693 125.337 11.411C128.672 10.7785 132.16 10.1631 135.562 10.1289C137.084 10.1118 139.153 10.2828 140.059 11.7187C141.29 13.6674 139.136 16.8981 138.161 18.6075C130.826 31.257 116.395 39.7527 103.246 45.2227C99.8775 46.6244 96.4235 47.8894 92.9012 48.8637C90.0799 49.65 86.1814 50.4193 83.8902 48.0432C78.3332 42.2655 89.1737 32.6758 93.0038 29.0348C102.579 19.9408 117.181 10.7614 131.065 14.0947C140.709 16.4024 135.562 27.1545 132.245 32.8296C128.928 38.4706 124.465 43.3595 119.404 47.4962C114.548 51.4791 109.145 54.7611 103.554 57.6158C101.091 58.8808 98.5951 60.0431 96.0645 61.1542C94.5256 61.8209 92.4567 63.0517 90.7126 62.8807C88.3872 62.6414 89.1053 61.8722 89.5499 60.6072C89.9431 59.4619 90.4048 58.3337 90.9178 57.2226C96.2867 45.6159 107.127 37.7185 118.549 32.6758C121.336 31.445 124.277 30.163 127.252 29.445C129.715 28.8639 132.331 28.7784 134.297 30.6074C136.828 32.9493 135.836 35.9407 134.383 38.5561C131.134 44.4535 126.705 49.821 121.695 54.3338C116.771 58.7611 110.923 62.744 104.665 65.0175C103.947 65.2739 103.16 65.5645 102.391 65.5816C100.271 65.6157 99.6894 63.3935 100.493 61.7354C101.28 60.1115 102.596 58.6073 103.742 57.2397C106.204 54.3167 109.042 51.6842 112.171 49.4962C114.77 47.6842 117.592 46.0945 120.567 44.9492C121.49 44.5902 123.2 43.633 123.61 45.6672C123.764 46.4364 122.875 48.18 122.619 48.7612C121.815 50.5047 120.84 52.1799 119.678 53.7184C118.6 55.1714 117.352 56.5218 115.984 57.7013C115.147 58.4192 113.744 59.9919 112.445 58.8466C111.949 58.4021 112 57.1543 112.035 56.556C112.206 52.9834 116.549 47.3937 120.02 51.1714C122.396 53.7526 122.67 58.009 122.858 61.3081C123.08 65.3593 122.755 69.3935 121.986 73.3593C121.764 74.3165 123.268 74.7439 123.474 73.7524Z" fill="#4F3422"/>
<path d="M206.009 206.059C203.564 207.581 202.418 210.572 203.29 213.324C203.598 214.281 205.103 213.871 204.795 212.914C204.128 210.829 204.914 208.589 206.795 207.41C207.65 206.88 206.864 205.512 206.009 206.059Z" fill="#4F3422"/>
<path d="M218.816 207.94C215.978 209.051 214.097 211.649 213.977 214.709C213.943 215.717 215.516 215.717 215.55 214.709C215.636 212.401 217.072 210.298 219.226 209.461C220.167 209.085 219.756 207.581 218.816 207.94Z" fill="#4F3422"/>
<path d="M180.942 206.401C182.31 204.145 184.721 202.897 187.354 203.016C188.363 203.068 188.363 201.495 187.354 201.444C184.174 201.29 181.233 202.897 179.591 205.615C179.078 206.469 180.429 207.256 180.942 206.401Z" fill="#4F3422"/>
<path d="M222.937 193.376C227.93 190.675 233.384 188.965 239.027 188.247C241.933 187.871 244.857 187.752 247.781 187.888C249.234 187.957 250.671 188.076 252.107 188.264C253.133 188.401 255.937 188.47 256.792 189.119C258.502 190.435 254.621 190.555 253.68 190.658C252.295 190.811 250.927 190.914 249.542 191.017C246.618 191.222 243.695 191.376 240.771 191.598C235.316 192.042 229.879 192.794 224.749 194.811C223.946 195.136 224.031 196.299 224.954 196.35C231.879 196.709 238.753 194.64 245.644 195.786C251.816 196.811 257.579 199.854 261.563 204.692C261.563 204.316 261.563 203.957 261.563 203.581C259.596 205.786 255.612 204.64 253.116 204.213C250.038 203.683 246.977 203.085 243.934 202.418C237.864 201.085 231.879 199.461 225.946 197.615C224.989 197.307 224.578 198.828 225.536 199.119C232.717 201.375 240.001 203.256 247.371 204.743C250.448 205.358 253.595 206.076 256.707 206.35C258.861 206.538 261.135 206.401 262.657 204.709C262.965 204.367 262.931 203.94 262.657 203.598C258.69 198.777 252.979 195.649 246.875 194.435C239.54 192.982 232.29 195.188 224.937 194.794C225.006 195.307 225.074 195.82 225.142 196.333C232.324 193.495 240.052 193.205 247.661 192.709C249.115 192.606 261.922 192.846 258.929 188.589C257.75 186.914 253.988 186.948 252.175 186.709C248.653 186.247 245.08 186.145 241.54 186.418C234.752 186.931 228.135 188.777 222.133 192.025C221.261 192.504 222.048 193.854 222.937 193.376Z" fill="#4F3422"/>
</svg>
