<svg width="25" height="25" viewBox="0 0 25 25" fill="none" xmlns="http://www.w3.org/2000/svg">
<path d="M8.63483 12.0099C8.63483 9.81084 10.418 8.02767 12.6183 8.02767C14.8185 8.02767 16.6027 9.81084 16.6027 12.0099C16.6027 14.209 14.8185 15.9922 12.6183 15.9922C10.418 15.9922 8.63483 14.209 8.63483 12.0099ZM6.48093 12.0099C6.48093 15.3977 9.22862 18.1439 12.6183 18.1439C16.0079 18.1439 18.7556 15.3977 18.7556 12.0099C18.7556 8.62209 16.0079 5.87589 12.6183 5.87589C9.22862 5.87589 6.48093 8.62209 6.48093 12.0099ZM17.5643 5.63268C17.5642 5.9162 17.6482 6.19338 17.8057 6.42918C17.9632 6.66498 18.1871 6.84881 18.4492 6.95741C18.7112 7.06601 18.9996 7.09451 19.2778 7.03931C19.5561 6.98411 19.8117 6.84769 20.0124 6.64729C20.213 6.44689 20.3497 6.19152 20.4052 5.91347C20.4606 5.63542 20.4323 5.34718 20.3239 5.0852C20.2154 4.82322 20.0317 4.59927 19.7959 4.44166C19.5601 4.28405 19.2828 4.19987 18.9992 4.19975H18.9986C18.6183 4.19993 18.2537 4.35094 17.9848 4.61961C17.7159 4.88828 17.5646 5.25264 17.5643 5.63268ZM7.78956 21.7335C6.62427 21.6805 5.99089 21.4865 5.56998 21.3226C5.01195 21.1055 4.6138 20.8468 4.19518 20.429C3.77657 20.0112 3.51744 19.6137 3.30115 19.0559C3.13707 18.6354 2.94297 18.0022 2.89 16.8376C2.83205 15.5784 2.82048 15.2001 2.82048 12.01C2.82048 8.81991 2.83301 8.44271 2.89 7.18248C2.94306 6.01781 3.1386 5.38583 3.30115 4.96409C3.5184 4.40637 3.77714 4.00843 4.19518 3.59004C4.61323 3.17165 5.011 2.91267 5.56998 2.69649C5.9907 2.5325 6.62427 2.3385 7.78956 2.28556C9.04943 2.22765 9.42788 2.21608 12.6183 2.21608C15.8087 2.21608 16.1875 2.2286 17.4484 2.28556C18.6137 2.3386 19.246 2.53403 19.668 2.69649C20.226 2.91267 20.6242 3.17222 21.0428 3.59004C21.4614 4.00786 21.7196 4.40637 21.9368 4.96409C22.1009 5.38459 22.295 6.01781 22.348 7.18248C22.4059 8.44271 22.4175 8.81991 22.4175 12.01C22.4175 15.2001 22.4059 15.5773 22.348 16.8376C22.2949 18.0022 22.0999 18.6353 21.9368 19.0559C21.7196 19.6137 21.4608 20.0116 21.0428 20.429C20.6248 20.8465 20.226 21.1055 19.668 21.3226C19.2473 21.4866 18.6137 21.6806 17.4484 21.7335C16.1886 21.7914 15.8101 21.803 12.6183 21.803C9.42645 21.803 9.04904 21.7914 7.78956 21.7335ZM7.6906 0.136461C6.41821 0.194374 5.54875 0.39602 4.78945 0.69132C4.00309 0.996272 3.33739 1.40539 2.67218 2.0692C2.00696 2.733 1.59867 3.39938 1.29356 4.18532C0.998097 4.94469 0.796343 5.8132 0.738399 7.0849C0.679498 8.35861 0.666016 8.76582 0.666016 12.0099C0.666016 15.254 0.679498 15.6612 0.738399 16.9349C0.796343 18.2067 0.998097 19.0751 1.29356 19.8345C1.59867 20.62 2.00706 21.2871 2.67218 21.9506C3.3373 22.6142 4.00309 23.0227 4.78945 23.3285C5.55019 23.6238 6.41821 23.8255 7.6906 23.8834C8.96567 23.9413 9.37243 23.9557 12.6183 23.9557C15.8641 23.9557 16.2716 23.9422 17.546 23.8834C18.8184 23.8255 19.6873 23.6238 20.4471 23.3285C21.233 23.0227 21.8992 22.6144 22.5644 21.9506C23.2296 21.2868 23.637 20.62 23.943 19.8345C24.2385 19.0751 24.4412 18.2066 24.4982 16.9349C24.5561 15.6603 24.5696 15.254 24.5696 12.0099C24.5696 8.76582 24.5561 8.35861 24.4982 7.0849C24.4402 5.81311 24.2385 4.94422 23.943 4.18532C23.637 3.39986 23.2285 2.73405 22.5644 2.0692C21.9002 1.40434 21.233 0.996272 20.4481 0.69132C19.6873 0.39602 18.8183 0.193419 17.5469 0.136461C16.2725 0.078548 15.8651 0.0641174 12.6192 0.0641174C9.37338 0.0641174 8.96567 0.0775923 7.6906 0.136461Z" fill="#4F3422"/>
</svg>
