<svg width="22" height="22" viewBox="0 0 22 22" fill="none" xmlns="http://www.w3.org/2000/svg">
<path d="M12.4609 20.6667H6.1875C5.4584 20.666 4.75939 20.3848 4.24384 19.8848C3.72828 19.3849 3.4383 18.7071 3.4375 18.0001V4.66675C3.4383 3.95974 3.72828 3.28191 4.24384 2.78198C4.75939 2.28205 5.4584 2.00085 6.1875 2.00008H12.4609V20.6667ZM15.8125 20.6667H15.0391V2.00008H15.8125C16.5416 2.00085 17.2406 2.28205 17.7562 2.78198C18.2717 3.28191 18.5617 3.95974 18.5625 4.66675V18.0001C18.5617 18.7071 18.2717 19.3849 17.7562 19.8848C17.2406 20.3848 16.5416 20.666 15.8125 20.6667Z" fill="#D6CCC6"/>
</svg>
