<svg width="34" height="36" viewBox="0 0 34 36" fill="none" xmlns="http://www.w3.org/2000/svg">
<path d="M34 26C34 28.209 32.209 30 30 30H4C1.791 30 0 28.209 0 26V6.313C0 4.104 5.791 0 8 0H28.625C31.719 0 34 2.312 34 5.375V26Z" fill="#AAB8C2"/>
<path d="M32 30.0001C32 32.2091 30.209 34.0001 28 34.0001H6C3.791 34.0001 2 32.2091 2 30.0001V6.00011C2 1.88111 1.979 2.00011 7 2.00011H28C30.209 2.00011 32 3.79111 32 6.00011V30.0001Z" fill="#F5F8FA"/>
<path d="M30 31C30 32.657 28.657 34 27 34H3C1.343 34 0 32.657 0 31V7C0 5.343 1.343 4 3 4H27C28.657 4 30 5.343 30 7V31Z" fill="white"/>
<path d="M30 32C30 34.209 28.209 36 26 36H5C2.791 36 1 34.209 1 32V10C1 7.791 2.791 6 5 6H26C28.209 6 30 7.791 30 10V32Z" fill="#AAB8C2"/>
<path d="M28 32C28 34.209 26.209 36 24 36H5C2.791 36 1 34.209 1 32V12C1 9.791 2.791 8 5 8H24.335C26.544 8 28 9.456 28 11.665V32Z" fill="#E1E8ED"/>
<path d="M5 6C3.312 6 3.269 4.078 4 3.25C4.832 2.309 6.125 2 8.438 2H10V0H7.281C3.312 0 0 2.5 0 5.375V32C0 34.209 1.791 36 4 36H6V6H5Z" fill="#AAB8C2"/>
<path d="M16 4V27L20 21L24 27V4H16Z" fill="#DD2E44"/>
<path d="M24 28C23.672 28 23.356 27.838 23.168 27.555L20 22.803L16.832 27.555C16.587 27.922 16.131 28.086 15.71 27.957C15.289 27.829 15 27.44 15 27V4C15 3.448 15.448 3 16 3H24C24.553 3 25 3.448 25 4V27C25 27.44 24.712 27.829 24.29 27.957C24.194 27.986 24.097 28 24 28ZM20 20C20.334 20 20.646 20.167 20.832 20.445L23 23.697V5H17V23.697L19.168 20.445C19.354 20.167 19.666 20 20 20Z" fill="#DD2E44"/>
<path d="M14 2H26V4H14V2Z" fill="#F5F8FA"/>
</svg>
