<svg width="390" height="311" viewBox="0 0 390 311" fill="none" xmlns="http://www.w3.org/2000/svg">
<circle cx="195" cy="371" r="291" stroke="white" stroke-width="160"/>
<path d="M270.316 89.9156C220.976 76.6948 169.024 76.6948 119.684 89.9156" stroke="#FFCE5C" stroke-width="160"/>
<path d="M119.684 89.9156C70.343 103.136 25.3517 129.112 -10.7681 165.232" stroke="#ED7E1C" stroke-width="160"/>
<path d="M400.768 165.232C364.648 129.112 319.657 103.136 270.316 89.9156" stroke="#9BB168" stroke-width="160"/>
<path d="M476.084 295.684C462.864 246.343 436.888 201.352 400.768 165.232" stroke="#A694F5" stroke-width="160"/>
<path d="M-10.768 165.232C-46.8879 201.352 -72.8636 246.343 -86.0844 295.684" stroke="#926247" stroke-width="160"/>
<g style="mix-blend-mode:multiply" opacity="0.15">
<circle cx="195" cy="371" r="219" stroke="#4F3422" stroke-width="16"/>
</g>
<path d="M176.999 168.841C176.336 171.259 175.876 173.78 176.384 176.235C177.11 179.748 178.846 183.002 181.419 185.577C184.888 189.049 189.593 191 194.5 191C199.407 191 204.112 189.049 207.581 185.577C210.154 183.002 211.89 179.748 212.616 176.235C213.124 173.78 212.664 171.259 212.001 168.841L203.522 137.912C201.007 128.736 187.993 128.736 185.478 137.912L176.999 168.841Z" fill="#4F3422"/>
<rect x="189" y="169" width="12" height="12" rx="6" fill="white"/>
<path fill-rule="evenodd" clip-rule="evenodd" d="M216.75 57C218.821 57 220.5 58.6789 220.5 60.75L220.5 72C220.5 74.0711 218.821 75.75 216.75 75.75C214.679 75.75 213 74.0711 213 72L213 60.75C213 58.6789 214.679 57 216.75 57Z" fill="#705600"/>
<path fill-rule="evenodd" clip-rule="evenodd" d="M171.75 57C173.821 57 175.5 58.6789 175.5 60.75L175.5 72C175.5 74.0711 173.821 75.75 171.75 75.75C169.679 75.75 168 74.0711 168 72L168 60.75C168 58.6789 169.679 57 171.75 57Z" fill="#705600"/>
<path fill-rule="evenodd" clip-rule="evenodd" d="M168 90.75C168 88.6789 169.679 87 171.75 87H216.75C218.821 87 220.5 88.6789 220.5 90.75C220.5 92.8211 218.821 94.5 216.75 94.5H171.75C169.679 94.5 168 92.8211 168 90.75Z" fill="#705600"/>
<path fill-rule="evenodd" clip-rule="evenodd" d="M361.562 104.964C363.027 105.157 364.439 105.636 365.719 106.375C366.998 107.114 368.12 108.097 369.019 109.269C369.918 110.441 370.578 111.779 370.96 113.206C371.343 114.633 371.44 116.121 371.247 117.586C371.055 119.051 370.575 120.463 369.837 121.743C368.801 123.536 366.508 124.151 364.714 123.115C362.92 122.08 362.306 119.786 363.341 117.993C363.588 117.566 363.747 117.096 363.812 116.607C363.876 116.119 363.843 115.623 363.716 115.147C363.589 114.672 363.369 114.226 363.069 113.835C362.769 113.444 362.395 113.116 361.969 112.87C361.542 112.624 361.071 112.464 360.583 112.4C360.095 112.336 359.599 112.368 359.123 112.496C358.647 112.623 358.202 112.843 357.811 113.143C357.42 113.442 357.092 113.816 356.846 114.243C355.811 116.036 353.517 116.651 351.724 115.615C349.93 114.58 349.315 112.286 350.351 110.493C351.09 109.213 352.073 108.092 353.245 107.193C354.417 106.293 355.755 105.633 357.182 105.251C358.609 104.869 360.097 104.771 361.562 104.964Z" fill="#3D4A26"/>
<path fill-rule="evenodd" clip-rule="evenodd" d="M354.141 127.093C355.605 128.557 355.605 130.931 354.141 132.396C350.638 135.898 346.078 138.147 341.167 138.794C336.257 139.44 331.27 138.448 326.981 135.972C322.691 133.495 319.339 129.672 317.443 125.096C315.548 120.52 315.215 115.447 316.497 110.663C317.033 108.662 319.09 107.475 321.09 108.011C323.091 108.547 324.278 110.603 323.742 112.604C322.887 115.793 323.109 119.176 324.372 122.226C325.636 125.277 327.871 127.825 330.731 129.476C333.59 131.127 336.915 131.789 340.189 131.358C343.462 130.927 346.502 129.427 348.837 127.093C350.302 125.628 352.676 125.628 354.141 127.093Z" fill="#3D4A26"/>
<path fill-rule="evenodd" clip-rule="evenodd" d="M329.086 86.214C330.551 86.4069 331.963 86.8863 333.243 87.625C334.522 88.3637 335.644 89.3471 336.543 90.5192C337.442 91.6913 338.102 93.029 338.484 94.4561C338.867 95.8831 338.964 97.3715 338.772 98.8362C338.579 100.301 338.099 101.713 337.361 102.993C336.325 104.786 334.032 105.401 332.238 104.365C330.444 103.33 329.83 101.036 330.865 99.2428C331.112 98.8163 331.271 98.3455 331.336 97.8573C331.4 97.369 331.367 96.8729 331.24 96.3972C331.113 95.9215 330.893 95.4756 330.593 95.0849C330.293 94.6942 329.919 94.3664 329.493 94.1202C329.066 93.874 328.596 93.7141 328.107 93.6499C327.619 93.5856 327.123 93.6181 326.647 93.7456C326.172 93.873 325.726 94.0929 325.335 94.3927C324.944 94.6925 324.616 95.0663 324.37 95.4928C323.335 97.2864 321.041 97.9009 319.248 96.8654C317.454 95.8298 316.839 93.5364 317.875 91.7428C318.614 90.4633 319.597 89.3419 320.769 88.4426C321.941 87.5432 323.279 86.8835 324.706 86.5011C326.133 86.1187 327.621 86.0212 329.086 86.214Z" fill="#3D4A26"/>
<path fill-rule="evenodd" clip-rule="evenodd" d="M37.446 125.236C39.3414 120.66 42.6938 116.837 46.9833 114.36C51.2727 111.884 56.2595 110.892 61.1701 111.539C66.0807 112.185 70.6408 114.434 74.1432 117.936C75.6076 119.401 75.6076 121.775 74.1432 123.239C72.6787 124.704 70.3043 124.704 68.8399 123.239C66.505 120.905 63.4649 119.405 60.1912 118.974C56.9174 118.543 53.5929 119.205 50.7333 120.856C47.8736 122.507 45.6387 125.055 44.3751 128.106C43.1114 131.156 42.8897 134.539 43.7444 137.728C44.2804 139.729 43.0932 141.785 41.0927 142.321C39.0922 142.857 37.036 141.67 36.4999 139.669C35.218 134.885 35.5505 129.812 37.446 125.236Z" fill="#663600"/>
<path fill-rule="evenodd" clip-rule="evenodd" d="M16.2476 106.125C18.0412 105.089 20.3347 105.704 21.3702 107.498L26.9952 117.24C28.0307 119.034 27.4162 121.327 25.6226 122.363C23.829 123.399 21.5355 122.784 20.5 120.99L14.875 111.248C13.8395 109.454 14.454 107.161 16.2476 106.125Z" fill="#663600"/>
<path fill-rule="evenodd" clip-rule="evenodd" d="M55.2187 83.625C57.0123 82.5895 59.3057 83.204 60.3413 84.9976L65.9663 94.7404C67.0018 96.534 66.3873 98.8274 64.5937 99.863C62.8001 100.899 60.5066 100.284 59.4711 98.4904L53.8461 88.7476C52.8105 86.954 53.4251 84.6605 55.2187 83.625Z" fill="#663600"/>
</svg>
