<svg width="36" height="36" viewBox="0 0 36 36" fill="none" xmlns="http://www.w3.org/2000/svg">
<path d="M18 36C27.9411 36 36 27.9411 36 18C36 8.05887 27.9411 0 18 0C8.05887 0 0 8.05887 0 18C0 27.9411 8.05887 36 18 36Z" fill="#FFCC4D"/>
<path d="M18 29C19.6569 29 21 27.6569 21 26C21 24.3431 19.6569 23 18 23C16.3431 23 15 24.3431 15 26C15 27.6569 16.3431 29 18 29Z" fill="#664500"/>
<path d="M17.312 16.6119C17.136 16.4689 16.885 16.4649 16.702 16.5979C16.69 16.6069 15.442 17.4999 13 17.4999C10.559 17.4999 9.31 16.6069 9.3 16.5999C9.117 16.4629 8.865 16.4669 8.689 16.6089C8.511 16.7509 8.451 16.9949 8.543 17.2029C8.603 17.3379 10.043 20.4999 13 20.4999C15.958 20.4999 17.397 17.3379 17.457 17.2029C17.549 16.9959 17.489 16.7539 17.312 16.6119ZM27.312 16.6119C27.136 16.4689 26.886 16.4639 26.702 16.5979C26.69 16.6069 25.441 17.4999 23 17.4999C20.56 17.4999 19.31 16.6069 19.3 16.5999C19.117 16.4629 18.866 16.4669 18.689 16.6089C18.511 16.7509 18.451 16.9949 18.543 17.2029C18.603 17.3379 20.043 20.4999 23 20.4999C25.958 20.4999 27.397 17.3379 27.457 17.2029C27.549 16.9959 27.489 16.7539 27.312 16.6119Z" fill="#664500"/>
<path d="M34.43 12.5341C34.434 12.4901 34.453 12.4571 34.453 12.4111C34.453 11.6571 33.905 11.2231 33.228 11.2231H29.646L33.925 5.23008C34.131 4.94708 34.207 4.77708 34.207 4.41908C34.207 3.68408 33.567 3.57008 33.322 3.57008H27.973L27.941 2.88208C27.941 2.88208 26.532 3.71308 26.438 3.77008C26.344 3.82708 25.933 4.14208 25.933 4.75708C25.933 5.51108 26.479 5.94408 27.158 5.94408H30.307L26.046 11.9371C25.952 12.0881 25.802 12.3701 25.802 12.6721C25.802 13.2941 26.31 13.5961 26.913 13.5961H33.228C33.486 13.5961 33.743 13.5201 33.909 13.4201L35.412 12.5321H34.43V12.5341Z" fill="#FFAC33"/>
<path d="M31.771 5.08398H28.622C27.943 5.08398 27.397 4.65098 27.397 3.89698C27.397 3.14298 27.943 2.70898 28.622 2.70898H34.786C35.031 2.70898 35.671 2.82198 35.671 3.55698C35.671 3.91498 35.595 4.08498 35.389 4.36798L31.11 10.361H34.692C35.369 10.361 35.917 10.794 35.917 11.548C35.917 12.302 35.369 12.735 34.692 12.735H28.377C27.774 12.735 27.266 12.433 27.266 11.811C27.266 11.509 27.416 11.227 27.51 11.076L31.771 5.08398Z" fill="#2A6797"/>
<path d="M24.886 7.4801C24.889 7.4471 24.904 7.4221 24.904 7.3881C24.904 6.8241 24.494 6.4991 23.987 6.4991H21.305L24.508 2.0121C24.664 1.8001 24.72 1.6731 24.72 1.4061C24.72 0.856103 24.241 0.771104 24.057 0.771104H20.053L20.029 0.256104C20.029 0.256104 18.974 0.878103 18.904 0.921103C18.834 0.964103 18.526 1.2001 18.526 1.6601C18.526 2.2241 18.935 2.5491 19.443 2.5491H21.8L18.61 7.0361C18.54 7.1491 18.427 7.3601 18.427 7.5861C18.427 8.0521 18.807 8.2771 19.259 8.2771H23.987C24.18 8.2771 24.372 8.2201 24.497 8.1451L25.622 7.4801H24.886Z" fill="#FFAC33"/>
<path d="M22.896 1.903H20.539C20.031 1.903 19.622 1.579 19.622 1.014C19.622 0.45 20.031 0.125 20.539 0.125H25.154C25.338 0.125 25.817 0.21 25.817 0.76C25.817 1.028 25.76 1.155 25.606 1.367L22.403 5.854H25.085C25.59 5.854 26 6.178 26 6.743C26 7.308 25.59 7.632 25.083 7.632H20.355C19.903 7.632 19.523 7.406 19.523 6.941C19.523 6.715 19.636 6.504 19.706 6.391L22.896 1.903Z" fill="#2A6797"/>
<path d="M17.741 10.425C17.744 10.397 17.756 10.376 17.756 10.346C17.756 9.86297 17.405 9.58497 16.971 9.58497H14.676L17.418 5.74497C17.55 5.56397 17.599 5.45497 17.599 5.22597C17.599 4.75497 17.189 4.68197 17.032 4.68197H13.605L13.584 4.24097L12.621 4.80997C12.561 4.84697 12.297 5.04797 12.297 5.44297C12.297 5.92597 12.647 6.20397 13.082 6.20397H15.099L12.369 10.044C12.309 10.141 12.212 10.322 12.212 10.515C12.212 10.914 12.538 11.107 12.924 11.107H16.971C17.136 11.107 17.301 11.058 17.407 10.994L18.37 10.425H17.741Z" fill="#FFAC33"/>
<path d="M16.037 5.65188H14.02C13.585 5.65188 13.235 5.37388 13.235 4.89088C13.235 4.40788 13.585 4.12988 14.02 4.12988H17.97C18.127 4.12988 18.537 4.20288 18.537 4.67388C18.537 4.90288 18.489 5.01188 18.356 5.19288L15.614 9.03288H17.909C18.343 9.03288 18.694 9.31088 18.694 9.79388C18.694 10.2769 18.343 10.5549 17.909 10.5549H13.862C13.476 10.5549 13.15 10.3619 13.15 9.96288C13.15 9.76988 13.246 9.58888 13.307 9.49188L16.037 5.65188Z" fill="#2A6797"/>
</svg>
