<svg width="34" height="36" viewBox="0 0 34 36" fill="none" xmlns="http://www.w3.org/2000/svg">
<path d="M34 17.0002C34 26.3892 26.389 34.0002 17 34.0002C7.612 34.0002 0 26.3892 0 17.0002C0 7.61224 7.612 0.000244141 17 0.000244141C26.389 0.000244141 34 7.61224 34 17.0002Z" fill="#FFCC4D"/>
<path d="M17 27.0002C20.866 27.0002 24 23.6424 24 19.5002C24 15.3581 20.866 12.0002 17 12.0002C13.134 12.0002 10 15.3581 10 19.5002C10 23.6424 13.134 27.0002 17 27.0002Z" fill="#664500"/>
<path d="M21.468 27.3712C21.468 27.3712 22.465 26.6502 21.633 25.7572C20.801 24.8642 20.012 25.8092 20.012 25.8092L15.864 29.6752C15.795 29.4702 15.405 28.9322 15.314 28.7282L21.069 23.3622C21.069 23.3622 22.067 22.6412 21.233 21.7472C20.401 20.8552 19.611 21.7982 19.611 21.7982L14.198 26.8442C14.073 26.6862 13.737 26.3042 13.604 26.1462L19.88 20.2962C19.88 20.2962 20.877 19.5742 20.044 18.6822C19.212 17.7892 18.423 18.7332 18.423 18.7332L12.145 24.5812C11.995 24.4362 11.533 23.9722 11.381 23.8352L17.247 18.3672C17.247 18.3672 18.243 17.6452 17.411 16.7532C16.578 15.8602 15.79 16.8042 15.79 16.8042L9.58701 22.5852L9.09001 23.0492L8.87001 23.2562C8.87001 23.2562 8.33201 24.0002 7.78301 23.4352L9.62501 19.2772C9.62501 19.2772 10.205 18.2032 9.13201 17.6222C8.05701 17.0412 7.47701 18.1152 7.47701 18.1152L5.80901 20.8732C5.14601 21.9662 4.46001 23.0512 3.65001 24.0402C1.36601 26.8332 1.43901 30.9542 3.96801 33.6692C6.72701 36.6282 11.364 36.7912 14.323 34.0332L14.77 33.6152L21.468 27.3712Z" fill="#F4900C"/>
<path d="M10.016 6.08015C7.76099 6.68415 6.53599 8.04515 6.46099 8.13015C6.09699 8.54515 6.13799 9.17715 6.55199 9.54215C6.96699 9.90715 7.59799 9.86715 7.96299 9.45115C8.04199 9.36415 10.053 7.19815 13.773 7.95915C14.315 8.07015 14.843 7.72015 14.953 7.18015C15.064 6.63915 14.715 6.11015 14.174 6.00015C12.539 5.66415 11.148 5.77715 10.016 6.08015ZM23.984 6.08115C22.852 5.77815 21.461 5.66515 19.825 5.99915C19.284 6.11015 18.935 6.63815 19.046 7.17915C19.158 7.72015 19.685 8.06915 20.226 7.95815C23.95 7.19615 25.957 9.36315 26.04 9.45515C26.407 9.86215 27.04 9.89915 27.45 9.53315C27.86 9.16715 27.901 8.54215 27.538 8.12915C27.463 8.04515 26.238 6.68515 23.984 6.08115Z" fill="#664500"/>
</svg>
