<svg width="23" height="23" viewBox="0 0 23 23" fill="none" xmlns="http://www.w3.org/2000/svg">
<path d="M9.76795 3C10.5377 1.66667 12.4623 1.66667 13.2321 3L19.7272 14.25C20.497 15.5833 19.5348 17.25 17.9952 17.25H5.00481C3.46521 17.25 2.50296 15.5833 3.27276 14.25L9.76795 3Z" fill="#ED7E1C"/>
<path d="M12.052 5.27L11.87 12.06H10.54L10.358 5.27H12.052ZM11.254 15.098C10.9647 15.098 10.722 15 10.526 14.804C10.33 14.608 10.232 14.3653 10.232 14.076C10.232 13.7867 10.33 13.544 10.526 13.348C10.722 13.152 10.9647 13.054 11.254 13.054C11.534 13.054 11.772 13.152 11.968 13.348C12.164 13.544 12.262 13.7867 12.262 14.076C12.262 14.3653 12.164 14.608 11.968 14.804C11.772 15 11.534 15.098 11.254 15.098Z" fill="white"/>
</svg>
