<svg width="390" height="126" viewBox="0 0 390 126" fill="none" xmlns="http://www.w3.org/2000/svg">
<rect x="12.5" y="51" width="0" height="24" stroke="#E1E1E0" stroke-width="4" stroke-linecap="round" stroke-linejoin="round"/>
<rect x="28.5" y="42" width="0" height="42" stroke="#C9C7C5" stroke-width="8" stroke-linecap="round" stroke-linejoin="round"/>
<rect x="44.5" y="51" width="0" height="24" stroke="#E1E1E0" stroke-width="4" stroke-linecap="round" stroke-linejoin="round"/>
<rect x="60.5" y="51" width="0" height="24" stroke="#E1E1E0" stroke-width="4" stroke-linecap="round" stroke-linejoin="round"/>
<rect x="76.5" y="51" width="0" height="24" stroke="#E1E1E0" stroke-width="4" stroke-linecap="round" stroke-linejoin="round"/>
<rect x="92.5" y="51" width="0" height="24" stroke="#E1E1E0" stroke-width="4" stroke-linecap="round" stroke-linejoin="round"/>
<rect x="108.5" y="42" width="0" height="42" stroke="#C9C7C5" stroke-width="8" stroke-linecap="round" stroke-linejoin="round"/>
<rect x="124.5" y="51" width="0" height="24" stroke="#E1E1E0" stroke-width="4" stroke-linecap="round" stroke-linejoin="round"/>
<rect x="140.5" y="51" width="0" height="24" stroke="#E1E1E0" stroke-width="4" stroke-linecap="round" stroke-linejoin="round"/>
<rect x="156.5" y="51" width="0" height="24" stroke="#E1E1E0" stroke-width="4" stroke-linecap="round" stroke-linejoin="round"/>
<rect x="172.5" y="51" width="0" height="24" stroke="#E1E1E0" stroke-width="4" stroke-linecap="round" stroke-linejoin="round"/>
<g filter="url(#filter0_d_2_6300)">
<rect x="188.5" y="4" width="12" height="118" rx="6" fill="#045481"/>
</g>
<rect x="216.5" y="51" width="0" height="24" stroke="#E1E1E0" stroke-width="4" stroke-linecap="round" stroke-linejoin="round"/>
<rect x="232.5" y="51" width="0" height="24" stroke="#E1E1E0" stroke-width="4" stroke-linecap="round" stroke-linejoin="round"/>
<rect x="248.5" y="51" width="0" height="24" stroke="#E1E1E0" stroke-width="4" stroke-linecap="round" stroke-linejoin="round"/>
<rect x="264.5" y="51" width="0" height="24" stroke="#E1E1E0" stroke-width="4" stroke-linecap="round" stroke-linejoin="round"/>
<rect x="280.5" y="42" width="0" height="42" stroke="#C9C7C5" stroke-width="8" stroke-linecap="round" stroke-linejoin="round"/>
<rect x="296.5" y="51" width="0" height="24" stroke="#E1E1E0" stroke-width="4" stroke-linecap="round" stroke-linejoin="round"/>
<rect x="312.5" y="51" width="0" height="24" stroke="#E1E1E0" stroke-width="4" stroke-linecap="round" stroke-linejoin="round"/>
<rect x="328.5" y="51" width="0" height="24" stroke="#E1E1E0" stroke-width="4" stroke-linecap="round" stroke-linejoin="round"/>
<rect x="344.5" y="51" width="0" height="24" stroke="#E1E1E0" stroke-width="4" stroke-linecap="round" stroke-linejoin="round"/>
<rect x="360.5" y="42" width="0" height="42" stroke="#C9C7C5" stroke-width="8" stroke-linecap="round" stroke-linejoin="round"/>
<rect x="376.5" y="51" width="0" height="24" stroke="#E1E1E0" stroke-width="4" stroke-linecap="round" stroke-linejoin="round"/>
<path d="M271.838 106.364V118H269.731V108.415H269.662L266.941 110.153V108.222L269.833 106.364H271.838ZM274.745 118V116.477L278.785 112.517C279.171 112.127 279.493 111.78 279.751 111.477C280.008 111.174 280.201 110.881 280.33 110.597C280.459 110.312 280.523 110.009 280.523 109.688C280.523 109.32 280.44 109.006 280.273 108.744C280.107 108.479 279.878 108.275 279.586 108.131C279.294 107.987 278.963 107.915 278.592 107.915C278.209 107.915 277.874 107.994 277.586 108.153C277.298 108.309 277.075 108.53 276.915 108.818C276.76 109.106 276.683 109.449 276.683 109.847H274.677C274.677 109.108 274.845 108.466 275.183 107.92C275.52 107.375 275.984 106.953 276.575 106.653C277.169 106.354 277.851 106.205 278.62 106.205C279.4 106.205 280.086 106.35 280.677 106.642C281.268 106.934 281.726 107.333 282.052 107.841C282.381 108.348 282.546 108.928 282.546 109.58C282.546 110.015 282.463 110.443 282.296 110.864C282.129 111.284 281.836 111.75 281.415 112.261C280.999 112.773 280.414 113.392 279.66 114.119L277.654 116.159V116.239H282.722V118H274.745ZM288.771 118.159C287.926 118.159 287.176 118.017 286.521 117.733C285.869 117.449 285.358 117.061 284.987 116.568C284.619 116.072 284.438 115.509 284.441 114.881C284.438 114.392 284.544 113.943 284.76 113.534C284.975 113.125 285.267 112.784 285.635 112.511C286.006 112.235 286.419 112.059 286.873 111.983V111.903C286.275 111.771 285.79 111.466 285.419 110.989C285.051 110.508 284.869 109.953 284.873 109.324C284.869 108.725 285.036 108.191 285.373 107.722C285.71 107.252 286.172 106.883 286.76 106.614C287.347 106.341 288.017 106.205 288.771 106.205C289.517 106.205 290.182 106.341 290.765 106.614C291.352 106.883 291.814 107.252 292.152 107.722C292.492 108.191 292.663 108.725 292.663 109.324C292.663 109.953 292.475 110.508 292.1 110.989C291.729 111.466 291.25 111.771 290.663 111.903V111.983C291.117 112.059 291.527 112.235 291.89 112.511C292.258 112.784 292.549 113.125 292.765 113.534C292.985 113.943 293.095 114.392 293.095 114.881C293.095 115.509 292.909 116.072 292.538 116.568C292.167 117.061 291.655 117.449 291.004 117.733C290.356 118.017 289.612 118.159 288.771 118.159ZM288.771 116.534C289.206 116.534 289.585 116.46 289.907 116.312C290.229 116.161 290.479 115.949 290.657 115.676C290.835 115.403 290.926 115.089 290.93 114.733C290.926 114.362 290.83 114.034 290.64 113.75C290.455 113.462 290.199 113.237 289.873 113.074C289.551 112.911 289.184 112.83 288.771 112.83C288.354 112.83 287.983 112.911 287.657 113.074C287.331 113.237 287.074 113.462 286.885 113.75C286.699 114.034 286.608 114.362 286.612 114.733C286.608 115.089 286.695 115.403 286.873 115.676C287.051 115.945 287.301 116.155 287.623 116.307C287.949 116.458 288.331 116.534 288.771 116.534ZM288.771 111.233C289.127 111.233 289.441 111.161 289.714 111.017C289.991 110.873 290.208 110.672 290.367 110.415C290.527 110.157 290.608 109.86 290.612 109.523C290.608 109.189 290.528 108.898 290.373 108.648C290.218 108.394 290.002 108.199 289.725 108.062C289.449 107.922 289.131 107.852 288.771 107.852C288.403 107.852 288.08 107.922 287.799 108.062C287.523 108.199 287.307 108.394 287.152 108.648C287 108.898 286.926 109.189 286.93 109.523C286.926 109.86 287.002 110.157 287.157 110.415C287.316 110.669 287.534 110.869 287.811 111.017C288.091 111.161 288.411 111.233 288.771 111.233Z" fill="#C9C7C5"/>
<path d="M351.815 106.364V118H349.707V108.415H349.639L346.917 110.153V108.222L349.809 106.364H351.815ZM354.722 118V116.477L358.761 112.517C359.148 112.127 359.47 111.78 359.727 111.477C359.985 111.174 360.178 110.881 360.307 110.597C360.436 110.312 360.5 110.009 360.5 109.688C360.5 109.32 360.417 109.006 360.25 108.744C360.083 108.479 359.854 108.275 359.563 108.131C359.271 107.987 358.939 107.915 358.568 107.915C358.186 107.915 357.85 107.994 357.563 108.153C357.275 108.309 357.051 108.53 356.892 108.818C356.737 109.106 356.659 109.449 356.659 109.847H354.653C354.653 109.108 354.822 108.466 355.159 107.92C355.496 107.375 355.96 106.953 356.551 106.653C357.146 106.354 357.828 106.205 358.597 106.205C359.377 106.205 360.063 106.35 360.653 106.642C361.244 106.934 361.703 107.333 362.028 107.841C362.358 108.348 362.523 108.928 362.523 109.58C362.523 110.015 362.439 110.443 362.273 110.864C362.106 111.284 361.813 111.75 361.392 112.261C360.975 112.773 360.39 113.392 359.636 114.119L357.631 116.159V116.239H362.699V118H354.722ZM368.651 106.205C369.208 106.208 369.749 106.307 370.276 106.5C370.806 106.689 371.283 107 371.708 107.432C372.132 107.86 372.469 108.434 372.719 109.153C372.969 109.873 373.094 110.763 373.094 111.824C373.098 112.824 372.992 113.718 372.776 114.506C372.564 115.29 372.259 115.953 371.861 116.494C371.463 117.036 370.984 117.449 370.424 117.733C369.863 118.017 369.232 118.159 368.532 118.159C367.797 118.159 367.145 118.015 366.577 117.727C366.013 117.439 365.556 117.045 365.208 116.545C364.859 116.045 364.645 115.473 364.566 114.83H366.639C366.746 115.292 366.961 115.659 367.287 115.932C367.617 116.201 368.032 116.335 368.532 116.335C369.338 116.335 369.96 115.985 370.395 115.284C370.831 114.583 371.049 113.61 371.049 112.364H370.969C370.783 112.697 370.543 112.985 370.247 113.227C369.952 113.466 369.617 113.65 369.242 113.778C368.871 113.907 368.477 113.972 368.06 113.972C367.378 113.972 366.764 113.809 366.219 113.483C365.677 113.157 365.247 112.71 364.929 112.142C364.615 111.574 364.456 110.924 364.452 110.193C364.452 109.436 364.626 108.756 364.975 108.153C365.327 107.547 365.818 107.07 366.446 106.722C367.075 106.369 367.81 106.197 368.651 106.205ZM368.657 107.909C368.247 107.909 367.878 108.009 367.549 108.21C367.223 108.407 366.965 108.676 366.776 109.017C366.59 109.354 366.497 109.731 366.497 110.148C366.501 110.561 366.594 110.936 366.776 111.273C366.961 111.61 367.213 111.877 367.532 112.074C367.854 112.271 368.221 112.369 368.634 112.369C368.941 112.369 369.227 112.311 369.492 112.193C369.757 112.076 369.988 111.913 370.185 111.705C370.386 111.492 370.541 111.252 370.651 110.983C370.764 110.714 370.819 110.43 370.816 110.131C370.816 109.733 370.721 109.366 370.532 109.028C370.346 108.691 370.09 108.42 369.764 108.216C369.443 108.011 369.073 107.909 368.657 107.909Z" fill="#C9C7C5"/>
<path d="M100.807 106.364V118H98.6993V108.415H98.6311L95.9095 110.153V108.222L98.8016 106.364H100.807ZM103.714 118V116.477L107.754 112.517C108.14 112.127 108.462 111.78 108.719 111.477C108.977 111.174 109.17 110.881 109.299 110.597C109.428 110.312 109.492 110.009 109.492 109.688C109.492 109.32 109.409 109.006 109.242 108.744C109.076 108.479 108.846 108.275 108.555 108.131C108.263 107.987 107.932 107.915 107.56 107.915C107.178 107.915 106.843 107.994 106.555 108.153C106.267 108.309 106.043 108.53 105.884 108.818C105.729 109.106 105.651 109.449 105.651 109.847H103.646C103.646 109.108 103.814 108.466 104.151 107.92C104.488 107.375 104.952 106.953 105.543 106.653C106.138 106.354 106.82 106.205 107.589 106.205C108.369 106.205 109.055 106.35 109.646 106.642C110.237 106.934 110.695 107.333 111.021 107.841C111.35 108.348 111.515 108.928 111.515 109.58C111.515 110.015 111.432 110.443 111.265 110.864C111.098 111.284 110.805 111.75 110.384 112.261C109.968 112.773 109.382 113.392 108.629 114.119L106.623 116.159V116.239H111.691V118H103.714ZM114.029 118L118.978 108.205V108.125H113.234V106.364H121.16V108.165L116.217 118H114.029Z" fill="#C9C7C5"/>
<path d="M19.815 106.364V118H17.7071V108.415H17.6389L14.9173 110.153V108.222L17.8094 106.364H19.815ZM22.7216 118V116.477L26.7614 112.517C27.1477 112.127 27.4697 111.78 27.7273 111.477C27.9848 111.174 28.178 110.881 28.3068 110.597C28.4356 110.312 28.5 110.009 28.5 109.688C28.5 109.32 28.4167 109.006 28.25 108.744C28.0833 108.479 27.8542 108.275 27.5625 108.131C27.2708 107.987 26.9394 107.915 26.5682 107.915C26.1856 107.915 25.8504 107.994 25.5625 108.153C25.2746 108.309 25.0511 108.53 24.892 108.818C24.7367 109.106 24.6591 109.449 24.6591 109.847H22.6534C22.6534 109.108 22.822 108.466 23.1591 107.92C23.4962 107.375 23.9602 106.953 24.5511 106.653C25.1458 106.354 25.8277 106.205 26.5966 106.205C27.3769 106.205 28.0625 106.35 28.6534 106.642C29.2443 106.934 29.7027 107.333 30.0284 107.841C30.358 108.348 30.5227 108.928 30.5227 109.58C30.5227 110.015 30.4394 110.443 30.2727 110.864C30.1061 111.284 29.8125 111.75 29.392 112.261C28.9754 112.773 28.3902 113.392 27.6364 114.119L25.6307 116.159V116.239H30.6989V118H22.7216ZM36.8725 118.159C36.3156 118.155 35.7721 118.059 35.2418 117.869C34.7115 117.676 34.2342 117.364 33.81 116.932C33.3857 116.496 33.0486 115.919 32.7986 115.199C32.5486 114.475 32.4255 113.58 32.4293 112.511C32.4293 111.515 32.5353 110.627 32.7475 109.847C32.9596 109.066 33.2645 108.407 33.6622 107.869C34.06 107.328 34.5391 106.915 35.0997 106.631C35.6641 106.347 36.2948 106.205 36.9918 106.205C37.7228 106.205 38.3706 106.348 38.935 106.636C39.5031 106.924 39.9615 107.318 40.31 107.818C40.6584 108.314 40.8743 108.875 40.9577 109.5H38.8838C38.7778 109.053 38.56 108.697 38.2304 108.432C37.9047 108.163 37.4918 108.028 36.9918 108.028C36.185 108.028 35.5637 108.379 35.1281 109.08C34.6963 109.78 34.4785 110.742 34.4747 111.966H34.5543C34.7399 111.633 34.9804 111.347 35.2759 111.108C35.5713 110.869 35.9047 110.686 36.2759 110.557C36.6509 110.424 37.0467 110.358 37.4634 110.358C38.1452 110.358 38.7569 110.521 39.2986 110.847C39.844 111.172 40.2759 111.621 40.594 112.193C40.9122 112.761 41.0694 113.413 41.0656 114.148C41.0694 114.913 40.8952 115.6 40.5429 116.21C40.1906 116.816 39.7001 117.294 39.0713 117.642C38.4425 117.991 37.7096 118.163 36.8725 118.159ZM36.8611 116.455C37.274 116.455 37.6433 116.354 37.969 116.153C38.2948 115.953 38.5524 115.682 38.7418 115.341C38.9312 115 39.024 114.617 39.0202 114.193C39.024 113.777 38.9331 113.4 38.7475 113.062C38.5656 112.725 38.3137 112.458 37.9918 112.261C37.6698 112.064 37.3024 111.966 36.8895 111.966C36.5827 111.966 36.2967 112.025 36.0315 112.142C35.7664 112.259 35.5353 112.422 35.3384 112.631C35.1414 112.835 34.9861 113.074 34.8725 113.347C34.7626 113.616 34.7058 113.903 34.702 114.21C34.7058 114.616 34.8005 114.989 34.9861 115.33C35.1717 115.67 35.4274 115.943 35.7531 116.148C36.0789 116.352 36.4482 116.455 36.8611 116.455Z" fill="#C9C7C5"/>
<defs>
<filter id="filter0_d_2_6300" x="184.5" y="0" width="20" height="126" filterUnits="userSpaceOnUse" color-interpolation-filters="sRGB">
<feFlood flood-opacity="0" result="BackgroundImageFix"/>
<feColorMatrix in="SourceAlpha" type="matrix" values="0 0 0 0 0 0 0 0 0 0 0 0 0 0 0 0 0 0 127 0" result="hardAlpha"/>
<feMorphology radius="4" operator="dilate" in="SourceAlpha" result="effect1_dropShadow_2_6300"/>
<feOffset/>
<feComposite in2="hardAlpha" operator="out"/>
<feColorMatrix type="matrix" values="0 0 0 0 0.607843 0 0 0 0 0.690196 0 0 0 0 0.407843 0 0 0 0.25 0"/>
<feBlend mode="normal" in2="BackgroundImageFix" result="effect1_dropShadow_2_6300"/>
<feBlend mode="normal" in="SourceGraphic" in2="effect1_dropShadow_2_6300" result="shape"/>
</filter>
</defs>
</svg>
