<svg width="23" height="23" viewBox="0 0 23 23" fill="none" xmlns="http://www.w3.org/2000/svg">
<path d="M20.9701 9.92C20.9701 15.3971 16.5272 19.84 11.0501 19.84C5.57181 19.84 1.13013 15.3971 1.13013 9.92C1.13013 4.44168 5.57181 0 11.0501 0C16.5272 0 20.9701 4.44168 20.9701 9.92Z" fill="#FFCC4D"/>
<path d="M15.924 9.9999C15.831 9.90008 15.6921 9.89388 15.5923 9.98192C15.5718 9.9999 13.5444 11.7799 11.0502 11.7799C8.56211 11.7799 6.52851 9.9999 6.50805 9.98192C6.40761 9.89388 6.26935 9.90132 6.17635 9.9999C6.08397 10.0991 6.06351 10.2628 6.12737 10.3893C6.19433 10.5226 7.80695 13.6399 11.0502 13.6399C14.2934 13.6399 15.9066 10.5226 15.973 10.3893C16.0368 10.2622 16.0164 10.0991 15.924 9.9999Z" fill="#664500"/>
<path d="M8.19377 14.3555L7.23959 12.9797C7.23959 12.9797 6.90293 12.4422 6.36477 12.7783C5.82723 13.1137 6.16389 13.6518 6.16389 13.6518L7.25385 15.7474C7.25385 15.7474 7.34313 16.2236 6.68469 15.691C6.39763 15.4591 6.56255 15.59 6.56255 15.59L6.28975 15.3661L2.88533 12.5712C2.88533 12.5712 2.44575 12.1074 2.04275 12.5972C1.64099 13.0876 2.18101 13.4286 2.18101 13.4286L5.40067 16.0735C5.32627 16.1479 5.10183 16.4046 5.02867 16.4846L1.58333 13.6574C1.58333 13.6574 1.14313 13.193 0.741375 13.6828C0.338375 14.1733 0.879015 14.5142 0.879015 14.5142L4.32311 17.3427C4.25925 17.4295 4.09805 17.6378 4.03853 17.7234L1.06749 15.2843C1.06749 15.2843 0.627295 14.8205 0.225535 15.3103C-0.178085 15.8008 0.363175 16.1424 0.363175 16.1424L3.52145 18.7364C3.48177 18.8468 3.29639 19.137 3.26725 19.2449L0.990615 17.3774C0.990615 17.3774 0.551035 16.9112 0.149275 17.4028C-0.253725 17.8932 0.286915 18.2343 0.286915 18.2343L3.96352 21.2524L4.20842 21.4545C5.83281 22.7882 8.23159 22.5526 9.56521 20.9282C10.7872 19.4383 10.6918 17.2993 9.41641 15.9254C8.96443 15.4405 8.57321 14.9005 8.19377 14.3555ZM21.9516 17.4035C21.5498 16.9118 21.1102 17.378 21.1102 17.378L18.8336 19.2455C18.8045 19.1376 18.6191 18.8468 18.5794 18.7371L21.7377 16.143C21.7377 16.143 22.2789 15.8014 21.8759 15.3109C21.4742 14.8211 21.034 15.2849 21.034 15.2849L18.0629 17.724C18.0034 17.6378 17.8416 17.4295 17.7784 17.3433L21.2225 14.5149C21.2225 14.5149 21.7637 14.1739 21.3607 13.6834C20.959 13.1936 20.5194 13.658 20.5194 13.658L17.0734 16.4852C17.0009 16.4053 16.7764 16.1486 16.7014 16.0742L19.9211 13.4292C19.9211 13.4292 20.4605 13.0882 20.0593 12.5978C19.6563 12.108 19.2168 12.5718 19.2168 12.5718L15.8123 15.3668L15.5402 15.5906C15.5402 15.5906 16.154 15.0692 15.418 15.6916C14.6815 16.3141 14.8489 15.748 14.8489 15.748L15.9388 13.6525C15.9388 13.6525 16.2755 13.1143 15.7379 12.7789C15.1992 12.4428 14.8631 12.9804 14.8631 12.9804L13.9096 14.3562C13.5295 14.9011 13.1383 15.4411 12.6857 15.9266C11.4097 17.3012 11.3142 19.4395 12.5375 20.9294C13.8705 22.5538 16.2699 22.7894 17.8943 21.4558L18.1398 21.2536L21.8164 18.2355C21.8133 18.2349 22.354 17.8939 21.9516 17.4035Z" fill="#F4900C"/>
<path d="M17.0499 6.80942C17.0183 6.73378 16.2532 4.95996 14.6809 4.95996C13.1098 4.95996 12.3447 6.73378 12.3131 6.80942C12.2635 6.92598 12.2957 7.06114 12.3893 7.14174C12.4817 7.2211 12.6156 7.22358 12.7136 7.14918C12.7198 7.1436 13.3838 6.64326 14.6809 6.64326C15.9698 6.64326 16.6332 7.1374 16.6487 7.14918C16.6952 7.18576 16.751 7.20436 16.8068 7.20436C16.8657 7.20436 16.924 7.18328 16.9724 7.14298C17.0672 7.063 17.0995 6.92598 17.0499 6.80942ZM10.2299 6.80942C10.1976 6.73378 9.43318 4.95996 7.86086 4.95996C6.28978 4.95996 5.5247 6.73378 5.49246 6.80942C5.44348 6.92598 5.4751 7.06114 5.56934 7.14174C5.66234 7.2211 5.79626 7.22358 5.8936 7.14918C5.90042 7.1436 6.56382 6.64326 7.86086 6.64326C9.15046 6.64326 9.81324 7.1374 9.82812 7.14918C9.87524 7.18576 9.93042 7.20436 9.98622 7.20436C10.0451 7.20436 10.1034 7.18328 10.1518 7.14298C10.2472 7.063 10.2789 6.92598 10.2299 6.80942Z" fill="#664500"/>
<path d="M6.82296 15.7964C6.82296 15.7964 5.2153 17.8511 7.12304 20.4216C7.25448 20.5983 7.58804 20.5121 7.44606 20.305C7.29106 20.0793 5.74106 17.8895 7.19806 15.9297C7.19806 15.9297 6.96184 15.9005 6.82296 15.7964ZM15.2444 15.8571C15.2444 15.8571 16.8527 17.9118 14.9443 20.4823C14.8129 20.659 14.4793 20.5729 14.6213 20.3658C14.7763 20.1401 16.3263 17.9503 14.8693 15.9904C14.8687 15.9911 15.1055 15.9619 15.2444 15.8571Z" fill="#B55005"/>
</svg>
