<svg width="71" height="68" viewBox="0 0 71 68" fill="none" xmlns="http://www.w3.org/2000/svg">
<path d="M35.5 67.3276C55.1061 67.3276 71 52.2558 71 33.6638C71 15.0718 55.1061 0 35.5 0C15.8939 0 0 15.0718 0 33.6638C0 52.2558 15.8939 67.3276 35.5 67.3276Z" fill="#FFCC4D"/>
<path d="M35.4999 54.2362C38.7676 54.2362 41.4166 51.7242 41.4166 48.6255C41.4166 45.5269 38.7676 43.0149 35.4999 43.0149C32.2322 43.0149 29.5833 45.5269 29.5833 48.6255C29.5833 51.7242 32.2322 54.2362 35.4999 54.2362Z" fill="#664500"/>
<path d="M34.1431 31.068C33.796 30.8005 33.301 30.793 32.9401 31.0418C32.9164 31.0586 30.4551 32.7287 25.6389 32.7287C20.8247 32.7287 18.3614 31.0586 18.3417 31.0455C17.9808 30.7893 17.4838 30.7968 17.1367 31.0623C16.7856 31.3279 16.6673 31.7842 16.8487 32.1733C16.9671 32.4257 19.8071 38.3393 25.6389 38.3393C31.4728 38.3393 34.3108 32.4257 34.4291 32.1733C34.6106 31.7861 34.4922 31.3335 34.1431 31.068ZM53.8654 31.068C53.5183 30.8005 53.0252 30.7912 52.6623 31.0418C52.6386 31.0586 50.1753 32.7287 45.3611 32.7287C40.5489 32.7287 38.0836 31.0586 38.0639 31.0455C37.703 30.7893 37.208 30.7968 36.8589 31.0623C36.5078 31.3279 36.3895 31.7842 36.571 32.1733C36.6893 32.4257 39.5293 38.3393 45.3611 38.3393C51.195 38.3393 54.033 32.4257 54.1513 32.1733C54.3328 31.7861 54.2145 31.3335 53.8654 31.068Z" fill="#664500"/>
<path d="M67.9038 23.4412C67.9117 23.3589 67.9491 23.2972 67.9491 23.2111C67.9491 21.801 66.8684 20.9893 65.5332 20.9893H58.4687L66.9078 9.78115C67.3141 9.25188 67.464 8.93394 67.464 8.26441C67.464 6.8898 66.2018 6.6766 65.7186 6.6766H55.1691L55.106 5.38989C55.106 5.38989 52.3272 6.94404 52.1418 7.05064C51.9564 7.15724 51.1458 7.74636 51.1458 8.89654C51.1458 10.3067 52.2226 11.1165 53.5618 11.1165H59.7723L51.3687 22.3247C51.1833 22.6071 50.8875 23.1345 50.8875 23.6993C50.8875 24.8625 51.8893 25.4273 53.0786 25.4273H65.5332C66.042 25.4273 66.5489 25.2852 66.8763 25.0982L69.8405 23.4374H67.9038V23.4412Z" fill="#FFAC33"/>
<path d="M62.6595 9.50816H56.449C55.1099 9.50816 54.033 8.69836 54.033 7.28822C54.033 5.87808 55.1099 5.06641 56.449 5.06641H68.6058C69.089 5.06641 70.3512 5.27774 70.3512 6.65234C70.3512 7.32188 70.2013 7.63982 69.795 8.16909L61.3559 19.3773H68.4204C69.7556 19.3773 70.8363 20.1871 70.8363 21.5972C70.8363 23.0073 69.7556 23.8171 68.4204 23.8171H55.9658C54.7765 23.8171 53.7747 23.2523 53.7747 22.0891C53.7747 21.5243 54.0705 20.9969 54.2559 20.7145L62.6595 9.50816Z" fill="#2A6797"/>
<path d="M49.0809 13.9894C49.0868 13.9277 49.1164 13.8809 49.1164 13.8173C49.1164 12.7625 48.3078 12.1547 47.3078 12.1547H42.0183L48.3354 3.76309C48.643 3.36661 48.7535 3.12909 48.7535 2.62975C48.7535 1.60113 47.8088 1.44216 47.4459 1.44216H39.5491L39.5018 0.479004C39.5018 0.479004 37.4211 1.64227 37.283 1.72269C37.145 1.80311 36.5375 2.24448 36.5375 3.10478C36.5375 4.15958 37.3442 4.7674 38.3461 4.7674H42.9946L36.7032 13.159C36.5651 13.3704 36.3423 13.765 36.3423 14.1876C36.3423 15.0592 37.0917 15.48 37.9832 15.48H47.3078C47.6885 15.48 48.0671 15.3734 48.3137 15.2331L50.5324 13.9894H49.0809Z" fill="#FFAC33"/>
<path d="M45.156 3.55888H40.5074C39.5055 3.55888 38.6989 2.95293 38.6989 1.89626C38.6989 0.841461 39.5055 0.233643 40.5074 0.233643H49.6092C49.9721 0.233643 50.9168 0.39261 50.9168 1.42123C50.9168 1.92244 50.8044 2.15996 50.5007 2.55644L44.1837 10.9481H49.4732C50.4691 10.9481 51.2777 11.554 51.2777 12.6107C51.2777 13.6674 50.4691 14.2733 49.4692 14.2733H40.1445C39.2531 14.2733 38.5037 13.8506 38.5037 12.981C38.5037 12.5583 38.7265 12.1637 38.8646 11.9524L45.156 3.55888Z" fill="#2A6797"/>
<path d="M34.9891 19.4968C34.995 19.4444 35.0187 19.4051 35.0187 19.349C35.0187 18.4457 34.3265 17.9258 33.4705 17.9258H28.9443L34.3521 10.7442C34.6124 10.4057 34.7091 10.2018 34.7091 9.77355C34.7091 8.89268 33.9005 8.75616 33.5908 8.75616H26.832L26.7906 7.9314L24.8914 8.99555C24.773 9.06474 24.2524 9.44066 24.2524 10.1794C24.2524 11.0827 24.9426 11.6026 25.8005 11.6026H29.7785L24.3944 18.7842C24.276 18.9656 24.0847 19.3041 24.0847 19.6651C24.0847 20.4113 24.7277 20.7723 25.4889 20.7723H33.4705C33.7959 20.7723 34.1214 20.6806 34.3304 20.5609L36.2297 19.4968H34.9891Z" fill="#FFAC33"/>
<path d="M31.6286 10.5703H27.6506C26.7927 10.5703 26.1025 10.0504 26.1025 9.14711C26.1025 8.24379 26.7927 7.72388 27.6506 7.72388H35.4409C35.7506 7.72388 36.5592 7.8604 36.5592 8.74127C36.5592 9.16955 36.4645 9.3734 36.2022 9.71191L30.7944 16.8935H35.3206C36.1766 16.8935 36.8688 17.4134 36.8688 18.3167C36.8688 19.2201 36.1766 19.74 35.3206 19.74H27.339C26.5778 19.74 25.9348 19.379 25.9348 18.6328C25.9348 18.2719 26.1241 17.9334 26.2445 17.7519L31.6286 10.5703Z" fill="#2A6797"/>
</svg>
