<svg width="129" height="90" viewBox="0 0 129 90" fill="none" xmlns="http://www.w3.org/2000/svg">
<rect y="83" width="7" height="7" rx="3.5" fill="#DACACA" fill-opacity="0.83"/>
<rect x="12" y="74" width="7" height="16" rx="3.5" fill="#DACACA" fill-opacity="0.83"/>
<rect x="22" y="55" width="7" height="35" rx="3.5" fill="#DACACA" fill-opacity="0.83"/>
<rect x="33" y="62" width="7" height="28" rx="3.5" fill="#DACACA" fill-opacity="0.83"/>
<rect x="44" y="39" width="7" height="51" rx="3.5" fill="white"/>
<rect x="56" width="7" height="90" rx="3.5" fill="white"/>
<rect x="67" y="27" width="7" height="63" rx="3.5" fill="white"/>
<rect x="78" y="50" width="7" height="40" rx="3.5" fill="white"/>
<rect x="89" y="60" width="7" height="30" rx="3.5" fill="#DACACA" fill-opacity="0.83"/>
<rect x="99" y="83" width="7" height="7" rx="3.5" fill="#DACACA" fill-opacity="0.83"/>
<rect x="111" y="83" width="7" height="7" rx="3.5" fill="#DACACA" fill-opacity="0.83"/>
<rect x="122" y="83" width="7" height="7" rx="3.5" fill="#DACACA" fill-opacity="0.83"/>
</svg>
