<svg width="24" height="24" viewBox="0 0 24 24" fill="none" xmlns="http://www.w3.org/2000/svg">
<path d="M12 24C18.6274 24 24 18.6274 24 12C24 5.37258 18.6274 0 12 0C5.37258 0 0 5.37258 0 12C0 18.6274 5.37258 24 12 24Z" fill="#FFCC4D"/>
<path d="M7.00999 15.7473C7.03999 15.8666 7.78865 18.6666 12 18.6666C16.212 18.6666 16.96 15.8666 16.99 15.7473C17.0267 15.6026 16.9613 15.4526 16.832 15.3779C16.702 15.3039 16.5393 15.3259 16.432 15.4293C16.4193 15.4419 15.1293 16.6666 12 16.6666C8.87065 16.6666 7.57999 15.4419 7.56799 15.4299C7.50399 15.3666 7.41865 15.3333 7.33332 15.3333C7.27732 15.3333 7.22065 15.3473 7.16932 15.3759C7.03865 15.4506 6.97332 15.6019 7.00999 15.7473Z" fill="#664500"/>
<path d="M7.99998 11.3334C8.92045 11.3334 9.66665 10.2887 9.66665 9.00008C9.66665 7.71142 8.92045 6.66675 7.99998 6.66675C7.07951 6.66675 6.33331 7.71142 6.33331 9.00008C6.33331 10.2887 7.07951 11.3334 7.99998 11.3334Z" fill="#664500"/>
<path d="M16 11.3334C16.9205 11.3334 17.6666 10.2887 17.6666 9.00008C17.6666 7.71142 16.9205 6.66675 16 6.66675C15.0795 6.66675 14.3333 7.71142 14.3333 9.00008C14.3333 10.2887 15.0795 11.3334 16 11.3334Z" fill="#664500"/>
</svg>
