<svg width="36" height="36" viewBox="0 0 36 36" fill="none" xmlns="http://www.w3.org/2000/svg">
<path d="M18 36C27.9411 36 36 27.9411 36 18C36 8.05887 27.9411 0 18 0C8.05887 0 0 8.05887 0 18C0 27.9411 8.05887 36 18 36Z" fill="#FFCC4D"/>
<path d="M20.996 27C20.893 27 20.79 26.984 20.687 26.951C18.927 26.38 17.072 26.38 15.312 26.951C14.788 27.12 14.223 26.834 14.052 26.309C13.881 25.784 14.169 25.22 14.695 25.049C16.857 24.347 19.142 24.347 21.304 25.049C21.829 25.22 22.117 25.784 21.947 26.309C21.81 26.73 21.418 27 20.996 27Z" fill="#65471B"/>
<path d="M30.335 12.0681C29.432 14.8131 26.85 16.7831 23.841 16.7831C23.697 16.7831 23.552 16.7781 23.406 16.7691C21.929 16.6761 20.564 16.1141 19.456 15.1851C19.492 15.6801 19.532 16.1821 19.592 16.7251C19.744 18.1131 20.476 19.2071 21.708 19.8881C22.528 20.3421 23.508 20.5761 24.521 20.6401C26.255 20.7491 28.091 20.3601 29.394 19.7311C30.771 19.0661 31.666 17.8691 31.85 16.4461C32.033 15.0311 31.496 13.5221 30.335 12.0681Z" fill="white"/>
<path d="M21.351 7.58293C20.054 8.13293 19.404 9.88393 19.374 12.8719L19.413 12.9399C20.31 14.2589 21.786 15.1639 23.501 15.2719C23.615 15.2789 23.729 15.2829 23.842 15.2829C26.476 15.2829 28.691 13.3459 29.095 10.7589C28.98 10.6539 28.874 10.5469 28.752 10.4429C25.037 7.27293 22.285 7.18593 21.351 7.58293Z" fill="#65471B"/>
<path d="M23.841 16.783C26.85 16.783 29.432 14.813 30.335 12.068C29.981 11.625 29.564 11.188 29.094 10.759C28.69 13.346 26.475 15.283 23.841 15.283C23.728 15.283 23.614 15.279 23.5 15.272C21.785 15.164 20.309 14.259 19.412 12.94L19.373 12.872C19.366 13.573 19.394 14.345 19.456 15.185C20.564 16.114 21.929 16.676 23.406 16.769C23.552 16.779 23.697 16.783 23.841 16.783Z" fill="#F4900C"/>
<path d="M21.413 11.8119C22.0244 11.8119 22.52 11.3163 22.52 10.7049C22.52 10.0935 22.0244 9.5979 21.413 9.5979C20.8017 9.5979 20.306 10.0935 20.306 10.7049C20.306 11.3163 20.8017 11.8119 21.413 11.8119Z" fill="white"/>
<path d="M12.159 16.7831C9.15003 16.7831 6.56803 14.8131 5.66503 12.0681C4.50403 13.5221 3.96803 15.0311 4.15003 16.4451C4.33503 17.8681 5.22903 19.0661 6.60603 19.7301C7.90903 20.3591 9.74403 20.7481 11.479 20.6391C12.492 20.5751 13.472 20.3421 14.292 19.8871C15.523 19.2061 16.255 18.1121 16.408 16.7241C16.468 16.1821 16.508 15.6821 16.544 15.1881C15.441 16.1111 14.074 16.6751 12.594 16.7681C12.448 16.7791 12.303 16.7831 12.159 16.7831Z" fill="white"/>
<path d="M12.159 15.2829C12.272 15.2829 12.386 15.2789 12.5 15.2719C14.215 15.1639 15.691 14.2589 16.588 12.9399L16.627 12.8719C16.596 9.88395 15.947 8.13295 14.65 7.58295C13.716 7.18595 10.963 7.27295 7.24901 10.4419C7.12701 10.5459 7.02201 10.6529 6.90601 10.7579C7.31001 13.3459 9.52501 15.2829 12.159 15.2829Z" fill="#65471B"/>
<path d="M16.626 12.872L16.587 12.94C15.69 14.259 14.214 15.164 12.499 15.272C12.385 15.279 12.271 15.283 12.158 15.283C9.524 15.283 7.309 13.346 6.905 10.759C6.435 11.188 6.018 11.625 5.664 12.068C6.567 14.813 9.149 16.783 12.158 16.783C12.302 16.783 12.447 16.778 12.593 16.769C14.073 16.676 15.44 16.112 16.543 15.189C16.605 14.348 16.634 13.575 16.626 12.872Z" fill="#F4900C"/>
<path d="M9.781 11.8101C10.391 11.7721 10.855 11.2461 10.816 10.6361C10.778 10.0261 10.252 9.56208 9.642 9.60008C9.032 9.63808 8.568 10.1641 8.606 10.7741C8.645 11.3841 9.171 11.8481 9.781 11.8101Z" fill="white"/>
</svg>
