<svg width="24" height="23" viewBox="0 0 24 23" fill="none" xmlns="http://www.w3.org/2000/svg">
<path d="M12 23C18.6274 23 24 17.8513 24 11.5C24 5.14873 18.6274 0 12 0C5.37258 0 0 5.14873 0 11.5C0 17.8513 5.37258 23 12 23Z" fill="#FFCC4D"/>
<path d="M12 18.5277C13.1046 18.5277 14 17.6695 14 16.611C14 15.5525 13.1046 14.6943 12 14.6943C10.8954 14.6943 10 15.5525 10 16.611C10 17.6695 10.8954 18.5277 12 18.5277Z" fill="#664500"/>
<path d="M11.5413 10.6132C11.424 10.5218 11.2566 10.5193 11.1346 10.6042C11.1266 10.61 10.2946 11.1805 8.66665 11.1805C7.03931 11.1805 6.20665 10.61 6.19998 10.6055C6.07798 10.518 5.90998 10.5205 5.79265 10.6113C5.67398 10.702 5.63398 10.8579 5.69531 10.9908C5.73531 11.077 6.69531 13.0972 8.66665 13.0972C10.6386 13.0972 11.598 11.077 11.638 10.9908C11.6993 10.8585 11.6593 10.7039 11.5413 10.6132ZM18.208 10.6132C18.0906 10.5218 17.924 10.5186 17.8013 10.6042C17.7933 10.61 16.9606 11.1805 15.3333 11.1805C13.7066 11.1805 12.8733 10.61 12.8666 10.6055C12.7446 10.518 12.5773 10.5205 12.4593 10.6113C12.3406 10.702 12.3006 10.8579 12.362 10.9908C12.402 11.077 13.362 13.0972 15.3333 13.0972C17.3053 13.0972 18.2646 11.077 18.3046 10.9908C18.366 10.8585 18.326 10.7039 18.208 10.6132Z" fill="#664500"/>
<path d="M22.9534 8.00786C22.956 7.97975 22.9687 7.95867 22.9687 7.92928C22.9687 7.44756 22.6034 7.17028 22.152 7.17028H19.764L22.6167 3.34142C22.754 3.16061 22.8047 3.052 22.8047 2.82328C22.8047 2.3537 22.378 2.28086 22.2147 2.28086H18.6487L18.6274 1.84131C18.6274 1.84131 17.688 2.37223 17.6254 2.40864C17.5627 2.44506 17.2887 2.64631 17.2887 3.03923C17.2887 3.52095 17.6527 3.79759 18.1054 3.79759H20.2047L17.364 7.62645C17.3014 7.72292 17.2014 7.90309 17.2014 8.09603C17.2014 8.49342 17.54 8.68636 17.942 8.68636H22.152C22.324 8.68636 22.4954 8.63781 22.606 8.57392L23.608 8.00659H22.9534V8.00786Z" fill="#FFAC33"/>
<path d="M21.1806 3.24807H19.0813C18.6286 3.24807 18.2646 2.97144 18.2646 2.48971C18.2646 2.00799 18.6286 1.73071 19.0813 1.73071H23.1906C23.354 1.73071 23.7806 1.80291 23.7806 2.27249C23.7806 2.50121 23.73 2.60982 23.5926 2.79063L20.74 6.61949H23.128C23.5793 6.61949 23.9446 6.89613 23.9446 7.37785C23.9446 7.85957 23.5793 8.13621 23.128 8.13621H18.918C18.516 8.13621 18.1773 7.94327 18.1773 7.54588C18.1773 7.35293 18.2773 7.17277 18.34 7.0763L21.1806 3.24807Z" fill="#2A6797"/>
<path d="M16.5907 4.77891C16.5927 4.75782 16.6027 4.74185 16.6027 4.72013C16.6027 4.3598 16.3293 4.15216 15.9913 4.15216H14.2033L16.3387 1.28546C16.4427 1.15002 16.48 1.06888 16.48 0.898296C16.48 0.546908 16.1607 0.492602 16.038 0.492602H13.3687L13.3527 0.163574C13.3527 0.163574 12.6493 0.560963 12.6027 0.588435C12.556 0.615908 12.3507 0.766685 12.3507 1.06057C12.3507 1.42091 12.6233 1.62855 12.962 1.62855H14.5333L12.4067 4.49524C12.36 4.56744 12.2847 4.70224 12.2847 4.84663C12.2847 5.14435 12.538 5.2881 12.8393 5.2881H15.9913C16.12 5.2881 16.248 5.25169 16.3313 5.20377L17.0813 4.77891H16.5907Z" fill="#FFAC33"/>
<path d="M15.264 1.21578H13.6927C13.354 1.21578 13.0813 1.00878 13.0813 0.647806C13.0813 0.287473 13.354 0.079834 13.6927 0.079834H16.7693C16.892 0.079834 17.2113 0.13414 17.2113 0.485528C17.2113 0.656751 17.1733 0.73789 17.0707 0.873334L14.9353 3.74003H16.7233C17.06 3.74003 17.3333 3.94703 17.3333 4.308C17.3333 4.66897 17.06 4.87597 16.722 4.87597H13.57C13.2687 4.87597 13.0153 4.73158 13.0153 4.4345C13.0153 4.29011 13.0907 4.15531 13.1373 4.08311L15.264 1.21578Z" fill="#2A6797"/>
<path d="M11.8273 6.66036C11.8293 6.64247 11.8373 6.62906 11.8373 6.60989C11.8373 6.30131 11.6033 6.12369 11.314 6.12369H9.78396L11.612 3.67036C11.7 3.55472 11.7326 3.48508 11.7326 3.33878C11.7326 3.03786 11.4593 2.99122 11.3546 2.99122H9.06996L9.05596 2.70947L8.41396 3.073C8.37396 3.09664 8.19796 3.22506 8.19796 3.47742C8.19796 3.786 8.4313 3.96361 8.7213 3.96361H10.066L8.24596 6.41694C8.20596 6.47892 8.1413 6.59456 8.1413 6.71786C8.1413 6.97278 8.35863 7.09608 8.61596 7.09608H11.314C11.424 7.09608 11.534 7.06478 11.6046 7.02389L12.2466 6.66036H11.8273Z" fill="#FFAC33"/>
<path d="M10.6913 3.61082H9.34666C9.05666 3.61082 8.82333 3.43321 8.82333 3.12462C8.82333 2.81604 9.05666 2.63843 9.34666 2.63843H11.98C12.0847 2.63843 12.358 2.68507 12.358 2.98598C12.358 3.13229 12.326 3.20193 12.2373 3.31757L10.4093 5.7709H11.9393C12.2287 5.7709 12.4627 5.94851 12.4627 6.25709C12.4627 6.56568 12.2287 6.74329 11.9393 6.74329H9.24133C8.984 6.74329 8.76666 6.61998 8.76666 6.36507C8.76666 6.24176 8.83066 6.12612 8.87133 6.06415L10.6913 3.61082Z" fill="#2A6797"/>
</svg>
