<svg width="80" height="80" viewBox="0 0 80 80" fill="none" xmlns="http://www.w3.org/2000/svg">
<path d="M80 37.7784C80 58.6432 62.0918 75.5568 40 75.5568C17.9106 75.5568 0 58.6432 0 37.7784C0 16.9158 17.9106 0 40 0C62.0918 0 80 16.9158 80 37.7784Z" fill="#FFCC4D"/>
<path d="M39.9999 60.0009C49.0963 60.0009 56.4705 52.5388 56.4705 43.3339C56.4705 34.129 49.0963 26.667 39.9999 26.667C30.9034 26.667 23.5293 34.129 23.5293 43.3339C23.5293 52.5388 30.9034 60.0009 39.9999 60.0009Z" fill="#664500"/>
<path d="M50.5129 60.8252C50.5129 60.8252 52.8587 59.2229 50.9011 57.2385C48.9434 55.254 47.087 57.354 47.087 57.354L37.327 65.9453C37.1646 65.4897 36.247 64.2941 36.0329 63.8408L49.574 51.9162C49.574 51.9162 51.9223 50.3139 49.9599 48.3272C48.0023 46.345 46.1434 48.4406 46.1434 48.4406L33.407 59.6541C33.1129 59.303 32.3223 58.4541 32.0093 58.1029L46.7764 45.1027C46.7764 45.1027 49.1223 43.4983 47.1623 41.516C45.2046 39.5315 43.3482 41.6293 43.3482 41.6293L28.5764 54.6251C28.2234 54.3029 27.1364 53.2717 26.7787 52.9673L40.5811 40.816C40.5811 40.816 42.9246 39.2115 40.967 37.2293C39.007 35.2448 37.1529 37.3426 37.1529 37.3426L22.5576 50.1895L21.3882 51.2206L20.8705 51.6806C20.8705 51.6806 19.6046 53.334 18.3129 52.0784L22.647 42.8382C22.647 42.8382 24.0117 40.4515 21.487 39.1604C18.9576 37.8693 17.5929 40.256 17.5929 40.256L13.6682 46.385C12.1082 48.8139 10.494 51.225 8.58815 53.4229C3.21403 59.6296 3.3858 68.7875 9.33639 74.821C15.8282 81.3966 26.7387 81.7589 33.7011 75.6299L34.7529 74.701L50.5129 60.8252Z" fill="#F4900C"/>
<path d="M23.5672 13.511C18.2613 14.8532 15.379 17.8777 15.2025 18.0666C14.346 18.9889 14.4425 20.3933 15.4166 21.2044C16.3931 22.0156 17.8778 21.9267 18.7366 21.0022C18.9225 20.8089 23.6543 15.9955 32.4072 17.6866C33.6825 17.9333 34.9249 17.1555 35.1837 15.9555C35.4449 14.7532 34.6237 13.5777 33.3507 13.3332C29.5037 12.5865 26.2307 12.8376 23.5672 13.511ZM56.4331 13.5132C53.7696 12.8399 50.4966 12.5888 46.6472 13.331C45.3743 13.5777 44.5531 14.751 44.8143 15.9533C45.0778 17.1555 46.3178 17.9311 47.5907 17.6844C56.3531 15.991 61.0755 20.8067 61.2707 21.0111C62.1343 21.9156 63.6237 21.9978 64.5884 21.1844C65.5531 20.3711 65.6496 18.9822 64.7955 18.0644C64.619 17.8777 61.7366 14.8555 56.4331 13.5132Z" fill="#664500"/>
</svg>
