<svg width="33" height="33" viewBox="0 0 33 33" fill="none" xmlns="http://www.w3.org/2000/svg">
<path d="M32.5534 16.4788C32.5534 25.4073 25.3171 32.6436 16.3886 32.6436C7.46002 32.6436 0.223743 25.4073 0.223743 16.4788C0.223743 7.55024 7.46002 0.313965 16.3886 0.313965C25.3171 0.313965 32.5534 7.55024 32.5534 16.4788ZM21.6863 23.8855C20.6697 22.7553 18.8954 21.5303 16.3886 21.5303C13.8817 21.5303 12.1074 22.7553 11.0908 23.8855C10.7182 24.3023 10.7498 24.8832 11.1666 25.3126C11.5833 25.6851 12.1642 25.6536 12.5936 25.2368C13.3324 24.416 14.589 23.5509 16.3317 23.5509C18.1882 23.5509 19.4447 24.416 20.1835 25.2368C20.556 25.6536 21.1938 25.6851 21.6105 25.3126C22.0273 24.8832 22.0589 24.3023 21.6863 23.8855ZM11.3623 17.4891C12.4736 17.4891 13.3829 16.5861 13.3829 15.4685C13.3829 15.3738 13.3766 15.279 13.364 15.1906L14.0459 15.418C14.5763 15.5379 15.1509 15.3043 15.3277 14.7802C15.4477 14.2498 15.2141 13.6752 14.69 13.4984L8.62818 11.4778C8.09778 11.301 7.52317 11.5914 7.34636 12.1155C7.16956 12.6459 7.46002 13.2206 7.98412 13.3974L9.92894 14.0414C9.56271 14.4077 9.34171 14.9128 9.34171 15.4685C9.34171 16.5861 10.2447 17.4891 11.3623 17.4891ZM22.8861 14.0288L24.793 13.3974C25.3171 13.2206 25.5507 12.6459 25.4307 12.1155C25.2539 11.5914 24.6793 11.301 24.1489 11.4778L18.0871 13.4984C17.563 13.6752 17.2726 14.2498 17.4494 14.7802C17.6262 15.3043 18.2008 15.5379 18.7312 15.418L19.4637 15.1717C19.451 15.2664 19.4447 15.3674 19.4447 15.4685C19.4447 16.5861 20.3477 17.4891 21.4653 17.4891C22.5766 17.4891 23.4859 16.5861 23.4859 15.4685C23.4859 14.9065 23.2523 14.395 22.8861 14.0288Z" fill="white"/>
</svg>
