<svg width="34" height="30" viewBox="0 0 34 30" fill="none" xmlns="http://www.w3.org/2000/svg">
<path d="M33.4532 13.9042C33.434 13.7538 33.4149 13.5952 33.3862 13.4449C33.3383 13.1108 33.3 12.7684 33.2426 12.426C32.8501 10.0043 31.8258 7.78298 30.2176 5.83723C28.8391 4.15871 27.0873 2.79753 25.0292 1.79543C23.1625 0.885189 21.1044 0.317328 18.9027 0.100206C18.2709 0.0333993 17.6199 0 16.9881 0C15.8681 0 14.7577 0.100208 13.6472 0.300628V0.292279L13.4845 0.334034C13.226 0.384139 12.9771 0.434236 12.7187 0.492691C12.3932 0.567849 12.0582 0.659716 11.7327 0.751576C11.4359 0.826733 11.187 0.893538 10.9477 0.968696C8.35352 1.77873 6.09435 3.13991 4.22767 5.01885C2.36099 6.88944 1.0974 9.0523 0.456027 11.4323C0.00610888 13.1108 -0.108765 14.7893 0.101835 16.4261C0.322007 18.0963 0.810211 19.6579 1.55688 21.0608C2.37056 22.5807 3.481 23.9335 4.8499 25.0776C6.38154 26.3552 8.18121 27.349 10.3542 28.1173C11.3019 28.4513 12.2305 28.61 13.092 28.7269C13.5419 28.8104 14.011 28.8772 14.4705 28.9273C14.6332 28.944 14.7864 28.9607 14.9491 28.9774C15.4469 29.0526 16.0787 29.086 16.835 29.086C17.1413 29.086 17.438 29.0776 17.7156 29.0693L17.4859 29.1528L18.4815 29.0359C18.9027 29.0108 19.2377 28.9691 19.41 28.944L19.4579 28.9357C19.4866 28.9273 19.5057 28.919 19.5249 28.9106C20.7885 28.7519 22.0042 28.4931 23.1338 28.1256C24.6367 27.6329 26.0343 26.9732 27.2692 26.1465C28.7434 25.1611 29.9974 23.9669 30.9738 22.5807C31.9503 21.2111 32.6204 19.7581 32.9746 18.2466C33.0894 17.7455 33.1756 17.2361 33.2522 16.7351C33.2905 16.5013 33.3287 16.2758 33.367 16.042C33.3766 16.0002 33.3862 15.9501 33.3958 15.9084L33.4149 15.8332L33.4245 13.9543L33.4532 13.9042ZM20.3194 4.45934C21.5639 4.45934 22.5977 5.36959 22.5882 6.4385C22.5786 7.5074 21.5447 8.41764 20.3194 8.41764C19.0941 8.41764 18.0603 7.5074 18.0603 6.4385C18.0698 5.36959 19.1037 4.45934 20.3194 4.45934ZM22.837 25.9628C21.9755 27.1068 20.8268 27.9419 19.4387 28.4513C19.1324 28.4847 18.8165 28.5181 18.5006 28.5432C17.3902 28.6267 16.2414 28.6183 15.064 28.5098C14.6524 28.443 14.2503 28.3929 13.8578 28.3427C13.6472 28.3177 13.4366 28.2926 13.226 28.2592C12.0199 28.0421 10.852 27.7081 9.75114 27.2738C8.54498 26.7978 7.42496 26.1966 6.41983 25.4951C5.50085 24.8521 4.6776 24.1339 3.96922 23.3489C3.11724 22.4053 2.40886 21.3698 1.87279 20.2591C1.37501 19.2153 1.03997 18.2215 0.848512 17.2027C0.781503 16.8186 0.724064 16.4177 0.666628 16.0253C0.637909 15.8499 0.618759 15.6745 0.590041 15.4992V13.8457C0.590041 13.8373 0.590039 13.8373 0.599612 13.829C0.609184 13.7872 0.628334 13.7371 0.628334 13.6787C0.733634 12.543 0.98252 11.4323 1.36543 10.3968C1.86321 9.05231 2.58116 7.78298 3.51929 6.62221C4.64887 5.21927 6.05607 4.00005 7.69301 3.0063C9.01404 2.20462 10.4308 1.58665 11.9146 1.15241C12.1635 1.0856 12.4219 1.02715 12.6804 0.968696C12.8048 0.935292 12.9389 0.910242 13.0633 0.876838C13.025 1.11901 12.9963 1.35284 12.958 1.58666C12.8431 2.33824 12.7378 3.0564 12.6517 3.77458C12.4889 5.01885 12.3549 6.5053 12.5559 8.02516C12.7282 9.34459 13.1399 10.4385 13.8004 11.3822C14.4322 12.2841 15.2172 13.0524 16.1457 13.6536C17.0743 14.2632 18.0411 14.8561 19.0271 15.3989C19.343 15.5743 19.678 15.6996 20.0131 15.8248C20.2428 15.9084 20.463 15.9919 20.6736 16.0921C22.0521 16.7267 23.0476 17.4867 23.7177 18.422C24.3208 19.2654 24.608 20.2257 24.5697 21.2696C24.4835 22.9732 23.9092 24.5431 22.837 25.9628Z" fill="black" fill-opacity="0.75"/>
<path d="M10.8152 16H10.7769C9.24528 16 8.04869 17.0188 8.00083 18.38C7.96254 19.6994 9.18784 20.8017 10.7386 20.8351C10.7578 20.8351 10.7865 20.8351 10.8152 20.8351C12.299 20.8351 13.5243 19.7579 13.553 18.4301C13.5626 17.7954 13.285 17.1858 12.768 16.7265C12.2511 16.2672 11.5619 16.0084 10.8152 16Z" fill="white"/>
</svg>
