<svg width="34" height="34" viewBox="0 0 34 34" fill="none" xmlns="http://www.w3.org/2000/svg">
<g clip-path="url(#clip0_238_1711)">
<path d="M0.761688 17.0536C0.761688 7.89096 8.18927 0.463379 17.3519 0.463379C26.5145 0.463379 33.9421 7.89096 33.9421 17.0536C33.9421 26.2162 26.5145 33.6438 17.3519 33.6438C8.18927 33.6438 0.761688 26.2162 0.761688 17.0536Z" fill="white"/>
<path d="M12.4654 13.0285C12.4654 14.1669 11.9183 15.0893 11.2432 15.0893C10.5681 15.0893 10.0204 14.1669 10.0204 13.0285C10.0204 11.8901 10.5681 10.9683 11.2432 10.9683C11.9183 10.9683 12.4654 11.8907 12.4654 13.0285Z" fill="#EF5DA8"/>
<path d="M24.6866 13.0285C24.6866 14.1669 24.1389 15.0893 23.4638 15.0893C22.7887 15.0893 22.2415 14.1669 22.2415 13.0285C22.2415 11.8901 22.7887 10.9683 23.4638 10.9683C24.1389 10.9683 24.6866 11.8907 24.6866 13.0285Z" fill="#EF5DA8"/>
<path d="M6.20404 18.6221C6.83628 24.2211 11.5847 28.5726 17.3521 28.5726C23.1194 28.5726 27.8678 24.2211 28.5001 18.6221H6.20404Z" fill="#EF5DA8"/>
</g>
<defs>
<clipPath id="clip0_238_1711">
<rect width="33.1804" height="33.1804" fill="white" transform="translate(0.761688 0.463379)"/>
</clipPath>
</defs>
</svg>
