<svg width="34" height="28" viewBox="0 0 34 28" fill="none" xmlns="http://www.w3.org/2000/svg">
<path d="M29.5595 14.729C28.6188 14.3146 27.5737 14.0991 26.5475 14.0991C24.3147 14.0991 22.4334 15.1103 21.6352 16.7349C20.9986 18.0279 21.0842 19.9923 21.8348 21.1942C22.3193 21.9733 23.412 22.8022 25.0463 22.8022C25.3693 22.8022 25.7019 22.769 26.0344 22.711C26.9371 22.5452 28.2103 21.3682 28.5143 20.4316C28.7423 19.7271 27.8682 18.5252 26.9656 17.9616C26.8991 17.9201 26.823 17.9201 26.766 17.9201C26.652 17.9201 26.0819 17.9367 25.8064 18.2434C25.7114 18.3429 25.6069 18.5252 25.6734 18.7904L25.6924 18.8568L25.7494 18.8982C26.329 19.3872 26.633 19.9757 26.5095 20.3653C26.424 20.6305 26.1579 20.8129 25.7114 20.9123C25.2838 20.846 24.6757 20.5311 24.4667 20.3073C24.0771 19.8846 23.7256 18.8485 23.8871 18.2848C24.1721 17.2902 25.3313 16.5939 26.7185 16.5939C27.6782 16.5939 28.5333 16.9504 29.0654 17.572C29.9395 18.5998 30.5666 20.5559 30.0535 21.5257C29.4169 22.7441 27.6402 24.0123 25.9204 24.4765C25.4833 24.5925 25.0368 24.6505 24.6092 24.6505C22.9369 24.6505 21.3027 23.7471 20.02 22.1142C18.4713 20.1498 18.3857 18.0859 19.7635 16.1298C20.343 15.3175 21.1412 14.5881 21.9203 13.8835C22.2908 13.552 22.6709 13.2122 23.0225 12.864C25.4263 10.4852 26.0059 7.74163 24.7612 4.69968C23.6971 2.08874 21.3502 0.489028 17.9772 0.0580167C17.6636 0.0165733 17.3501 0 17.0365 0C14.0626 0 11.2216 1.67431 10.129 4.06146C9.01729 6.49004 9.88193 9.14242 12.2763 10.6675C13.1884 11.2477 14.3666 11.5627 15.5828 11.5627C17.1696 11.5627 18.6233 11.0157 19.4974 10.0956C21.1887 8.30526 21.1792 6.27453 19.4594 4.93177C18.8798 4.47589 17.8727 4.31012 17.122 4.31012C16.742 4.31012 16.4094 4.35156 16.1529 4.41787C15.5638 4.58364 14.2811 5.62802 14.2716 6.2994C14.2716 6.55635 14.4331 6.75528 14.7372 6.84645L14.7847 6.86303H14.8322C14.9557 6.86303 15.0317 6.79672 15.1742 6.68068C15.4688 6.43202 16.0864 5.92641 16.932 5.92641C17.2456 5.92641 17.5781 6.00101 17.9012 6.14191C18.1767 6.26624 18.2337 6.56464 18.2432 6.7387C18.2717 7.33548 17.8347 8.19751 17.065 8.60365C16.6375 8.82745 15.9819 8.96835 15.3548 8.96835C14.9937 8.96835 14.6612 8.92691 14.4046 8.83574C13.4925 8.53734 12.8654 7.89912 12.6183 7.0288C12.3143 5.94299 12.6944 4.72455 13.597 3.84595C14.4996 2.97563 15.7538 2.49489 17.1315 2.49489C18.8133 2.49489 20.4286 3.22429 21.4452 4.45102C22.7659 6.03416 22.9654 8.07318 21.9773 9.89669C20.9796 11.7534 18.9938 12.9303 16.6755 13.0547C16.514 13.063 16.3429 13.063 16.1719 13.063C14.9367 13.063 13.654 12.8392 12.4188 12.6237C11.6017 12.4828 10.7561 12.3336 9.92943 12.2507C9.58738 12.2175 9.23583 12.2009 8.89377 12.2009C4.5041 12.2009 0.722511 15.0025 0.0859126 18.7076C-0.531683 22.3214 2.24275 25.7115 6.40439 26.4326C6.83195 26.5072 7.27852 26.5487 7.70609 26.5487C10.5185 26.5487 12.9604 25.0235 13.92 22.6613C14.9177 20.2161 13.7585 17.6715 11.2786 16.8675C10.7276 16.6934 10.072 16.6022 9.36885 16.6022C8.4187 16.6022 7.47806 16.768 6.70844 17.0581C5.73929 17.4311 4.88415 18.865 4.99817 19.9426C5.14069 21.3848 5.93882 21.7412 6.69893 22.0811L6.78445 22.1225C7.05049 22.2385 7.54456 22.3794 8.06715 22.3794C8.87477 22.3794 9.40685 22.0562 9.55888 21.4677L9.56838 21.4428C9.68239 20.4979 8.77976 20.1001 8.18116 19.8265C7.99113 19.7436 7.66808 19.6027 7.64908 19.5281C7.64908 19.4204 7.90562 19.3458 8.26668 19.3458C9.11231 19.3458 10.2525 19.7188 10.5565 20.2493C10.9366 20.9289 11.0316 22.0645 10.452 22.827C9.79641 23.6808 8.92228 24.1118 7.82961 24.1118C7.01248 24.1118 6.09084 23.8548 5.1692 23.3824C3.00286 22.2551 2.25225 19.669 3.48744 17.6135C4.72263 15.5579 6.80345 14.5384 9.46386 14.6793C12.3713 14.8285 14.5186 16.2292 15.6873 18.7324C15.9534 19.3126 16.1529 19.9343 16.3429 20.5311C16.59 21.3268 16.856 22.1474 17.2836 22.8933C18.8513 25.6037 21.6162 27.0957 25.0748 27.0957C25.1983 27.0957 25.3313 27.0957 25.4548 27.0874C29.0464 26.9797 31.6403 25.3882 32.942 22.4872C34.2532 19.553 32.771 16.1464 29.5595 14.729Z" fill="black"/>
</svg>
